<svg width="29" height="29" viewBox="0 0 29 29" fill="none" xmlns="http://www.w3.org/2000/svg">
<g clip-path="url(#clip0)">
<path d="M17.1569 14.5226L28.4489 3.23026C29.1837 2.49574 29.1837 1.30812 28.4489 0.573596C27.7144 -0.160925 26.5267 -0.160925 25.7922 0.573596L14.4998 11.866L3.20781 0.573596C2.47295 -0.160925 1.28567 -0.160925 0.55115 0.573596C-0.183717 1.30812 -0.183717 2.49574 0.55115 3.23026L11.8432 14.5226L0.55115 25.815C-0.183717 26.5495 -0.183717 27.7371 0.55115 28.4717C0.917206 28.8381 1.39852 29.0221 1.87948 29.0221C2.36045 29.0221 2.84141 28.8381 3.20781 28.4717L14.4998 17.1793L25.7922 28.4717C26.1586 28.8381 26.6396 29.0221 27.1205 29.0221C27.6015 29.0221 28.0825 28.8381 28.4489 28.4717C29.1837 27.7371 29.1837 26.5495 28.4489 25.815L17.1569 14.5226Z" fill="black"/>
</g>
<defs>
<clipPath id="clip0">
<rect width="29" height="29" fill="white"/>
</clipPath>
</defs>
</svg>
