<svg width="168" height="55" viewBox="0 0 168 55" fill="none" xmlns="http://www.w3.org/2000/svg">
<g clip-path="url(#clip0)">
<path d="M45.1387 22.4035C45.3933 23.4752 45.5354 24.5805 45.561 25.7023L45.5892 25.7013L45.5515 26.6811C45.3891 31.0485 43.5326 35.2114 40.3213 38.4022C37.123 41.5799 32.9654 43.4106 28.6153 43.5568C24.2653 43.703 20.2434 42.1472 17.2914 39.1761C17.0731 38.9564 16.8583 38.7272 16.6532 38.4914C16.6247 38.4595 16.5963 38.4276 16.5679 38.3925L16.5589 38.3834C16.5409 38.3621 16.5215 38.3393 16.5036 38.318L16.493 38.3074C16.4511 38.2587 16.4093 38.2069 16.3691 38.1565C16.3347 38.1154 16.2988 38.0728 16.2631 38.027C16.2109 37.9615 16.1572 37.8944 16.105 37.8288C16.0753 37.7891 16.0394 37.7465 16.0083 37.7021C15.9666 37.6471 15.9175 37.5846 15.8714 37.5219C15.8462 37.4868 15.821 37.4516 15.7958 37.4165C15.7526 37.36 15.7067 37.2942 15.6623 37.2299C15.6386 37.1963 15.612 37.1565 15.5853 37.1198C15.5631 37.0877 15.5409 37.0555 15.5203 37.0218C15.4922 36.9804 15.4597 36.9314 15.4287 36.8839C15.4006 36.8426 15.3712 36.7966 15.3417 36.7506C15.3078 36.697 15.2738 36.6465 15.2401 36.5897C15.0075 36.2186 14.7897 35.8298 14.5909 35.4372L14.5866 35.4264C14.5589 35.3757 14.5328 35.3233 14.5099 35.2709C14.4882 35.2262 14.4665 35.1815 14.4433 35.1353C14.3191 34.8733 14.1984 34.6018 14.0902 34.333C14.076 34.2959 14.0588 34.2558 14.0431 34.2172C14.0276 34.1754 14.0089 34.1338 13.9919 34.0874C13.9721 34.0348 13.9494 33.9761 13.9267 33.9174C13.9096 33.8741 13.8913 33.823 13.8745 33.7735L13.866 33.7519C13.8437 33.6837 13.8182 33.6157 13.7959 33.5476C13.7776 33.4965 13.7608 33.447 13.7456 33.3958C13.4452 32.49 13.2311 31.5406 13.1053 30.5756L13.088 30.4212C13.075 30.3136 13.0621 30.206 13.0539 30.0998C13.0496 30.0499 13.044 29.9953 13.0398 29.9422C13.0288 29.8267 13.0209 29.7111 13.0129 29.5986C13.0092 29.533 13.0026 29.4643 13.0006 29.3971C12.9968 29.3346 12.9948 29.2673 12.9913 29.1986C12.9877 29.1329 12.9858 29.0625 12.9838 28.9953C12.9822 28.9186 12.979 28.8404 12.9774 28.7638L10.2724 28.8531C10.3081 33.5536 12.0865 37.9075 15.305 41.1467C18.7477 44.6117 23.4343 46.4254 28.5057 46.255C33.5771 46.0845 38.4218 43.9505 42.1518 40.2445C45.8932 36.5271 48.0591 31.6775 48.2502 26.592C48.3053 25.1403 48.1953 23.702 47.9222 22.3084L45.1387 22.4035Z" fill="#FFBB00"/>
<path d="M28.6939 41.5909C32.517 41.4624 36.174 39.8522 38.9858 37.0584C39.0739 36.9709 39.1604 36.8819 39.247 36.7929C39.291 36.7491 39.3319 36.7055 39.3745 36.6602L39.381 36.6537C39.4432 36.5859 39.5038 36.5197 39.566 36.4518C39.6152 36.3969 39.6628 36.3437 39.7119 36.2888C39.7365 36.2613 39.7579 36.2371 39.7776 36.2146L39.8104 36.1759C39.8547 36.1259 39.8975 36.0743 39.9419 36.0212C39.9813 35.976 40.0174 35.9341 40.0537 35.889C40.08 35.8568 40.1031 35.8279 40.1261 35.802L40.1739 35.7425C40.2036 35.7039 40.2349 35.6669 40.2662 35.6267C40.3817 35.4819 40.4923 35.3388 40.5983 35.1943C40.6282 35.1526 40.6564 35.1125 40.6861 35.074L40.696 35.0611C40.7193 35.029 40.7425 34.9969 40.764 34.9664L40.7741 34.9505C40.8039 34.9087 40.8338 34.867 40.8622 34.8238C40.9402 34.7131 41.0151 34.6026 41.0869 34.4922C41.1368 34.4185 41.1837 34.3417 41.2321 34.2665L41.2388 34.2569C41.2521 34.2377 41.2638 34.22 41.2756 34.1993C41.3107 34.1433 41.3409 34.0922 41.3743 34.041C41.4011 33.9962 41.4279 33.9546 41.4514 33.9131C41.4733 33.8764 41.4933 33.8444 41.5103 33.8125C41.5287 33.7821 41.5438 33.7582 41.5557 33.7343L41.5659 33.7151C41.5859 33.6832 41.6045 33.6497 41.6231 33.6161C41.6551 33.5603 41.682 33.5124 41.7075 33.463C41.7295 33.4231 41.748 33.3896 41.7699 33.3529C41.8308 33.2381 41.8918 33.1233 41.9497 33.0087C41.9666 32.9768 41.9819 32.9465 41.9972 32.9162L42.0091 32.8924C42.0296 32.851 42.0483 32.8143 42.0653 32.7793C42.0943 32.7204 42.1183 32.6695 42.1439 32.617C42.1645 32.5724 42.1848 32.5342 42.202 32.496C42.2362 32.4229 42.2671 32.3561 42.2964 32.2878L42.386 32.0843C42.4136 32.0208 42.4412 31.9572 42.4656 31.8969C42.4811 31.8604 42.4933 31.8302 42.5071 31.7984L42.5193 31.7683C42.5401 31.7175 42.5594 31.6652 42.5802 31.6144C42.7042 31.2955 42.8189 30.9738 42.9179 30.6527C42.9287 30.6179 42.9378 30.5847 42.9501 30.5514C42.9735 30.477 42.9953 30.4011 43.017 30.3284L43.1214 29.9507C43.1642 29.7817 43.2088 29.6048 43.2526 29.4108C43.2642 29.3572 43.2757 29.3035 43.2873 29.2499L43.2913 29.2279C43.2992 29.1869 43.3086 29.1474 43.3165 29.1065L43.3185 29.0954C43.3244 29.0655 43.3303 29.0356 43.3362 29.0056L43.3382 28.9946C43.3496 28.9441 43.3579 28.8937 43.3662 28.8433C43.3779 28.7866 43.3864 28.7299 43.3948 28.6764C43.4011 28.6371 43.4055 28.6056 43.4115 28.5725L43.4178 28.5332C43.4263 28.4765 43.4365 28.4182 43.4435 28.3601C43.4522 28.3003 43.4608 28.2405 43.4693 28.1839L43.4715 28.1697C43.4869 28.058 43.4992 27.9464 43.5131 27.8332C43.5177 27.7986 43.5205 27.7657 43.5236 27.7295L40.8154 27.819C40.4875 30.5715 39.1958 33.1826 37.1572 35.2082C32.447 39.8882 25.0767 40.1358 20.7292 35.7603C18.6096 33.6271 17.5197 30.7327 17.6572 27.6124C17.7222 26.1479 18.0712 24.666 18.6713 23.29L15.7985 23.3865C15.3021 24.792 15.0184 26.245 14.955 27.7111C14.787 31.5542 16.129 35.1133 18.7363 37.7374C21.333 40.3509 24.8692 41.7179 28.6939 41.5909Z" fill="white"/>
<path d="M38.7953 12.9691C35.3526 9.50412 30.666 7.69045 25.5946 7.86088C20.5232 8.03131 15.6769 10.1669 11.9469 13.873C8.20548 17.5904 6.03808 22.4385 5.85005 27.5238C5.79353 28.974 5.90499 30.4138 6.17641 31.8091L8.96459 31.7154C8.70997 30.6436 8.56788 29.5383 8.54234 28.4166L8.51411 28.4176L8.55179 27.4377C8.71256 23.0719 10.5707 18.9074 13.782 15.7167C16.9803 12.5389 21.1379 10.7083 25.488 10.5621C29.838 10.4159 33.8584 11.9702 36.8119 14.9428C37.0302 15.1624 37.2465 15.3932 37.4501 15.6274C37.4771 15.6578 37.507 15.6913 37.5354 15.7263C37.5563 15.7507 37.5773 15.775 37.5982 15.7994L37.6088 15.81C37.6507 15.8587 37.6925 15.9105 37.7327 15.9608C37.7671 16.0019 37.8045 16.0461 37.8402 16.0919C37.8909 16.1559 37.9446 16.223 37.9983 16.2901C38.028 16.3298 38.0624 16.3709 38.095 16.4168C38.1367 16.4717 38.1843 16.5328 38.2319 16.5969C38.2571 16.6321 38.2823 16.6673 38.306 16.7009C38.3507 16.7589 38.3951 16.8232 38.441 16.8889C38.4647 16.9226 38.4913 16.9624 38.518 16.9991C38.5402 17.0312 38.5624 17.0633 38.583 17.0971C38.6111 17.1384 38.6436 17.1874 38.6746 17.2349C38.7027 17.2763 38.7321 17.3222 38.76 17.3698C38.794 17.4204 38.8279 17.474 38.8616 17.5308C39.0942 17.9019 39.3134 18.2922 39.5108 18.6833C39.5384 18.7371 39.5675 18.7925 39.5933 18.8511C39.615 18.8958 39.6367 18.9405 39.6599 18.9867C39.7856 19.2502 39.9048 19.5202 40.013 19.789C40.0272 19.8261 40.0429 19.8647 40.0586 19.9033C40.0756 19.9466 40.0927 19.9898 40.1097 20.0331C40.1296 20.0857 40.1523 20.1444 40.175 20.2031C40.192 20.2464 40.2103 20.2974 40.2271 20.347L40.2357 20.3686C40.258 20.4368 40.2835 20.5048 40.3058 20.5729C40.3241 20.624 40.3409 20.6735 40.3561 20.7247C40.6565 21.6305 40.8706 22.5799 40.9964 23.5448L41.0153 23.6976C41.0281 23.8084 41.0395 23.9145 41.0494 24.019C41.0552 24.0705 41.0593 24.1236 41.0635 24.1767C41.0745 24.2922 41.0824 24.4078 41.0904 24.5202C41.0941 24.5859 41.1007 24.6545 41.1027 24.7218C41.1066 24.7812 41.1104 24.8437 41.1125 24.9078L41.112 24.9203C41.114 24.9876 41.1175 25.0563 41.1179 25.1252C41.1195 25.2019 41.1226 25.2801 41.1243 25.3567L43.8293 25.2674C43.7952 20.5653 42.0153 16.2099 38.7953 12.9691Z" fill="white"/>
<path d="M35.4351 30.8259L38.3079 30.7293C38.8043 29.3239 39.088 27.8708 39.1514 26.4048C39.3178 22.5633 37.9726 19.0043 35.3653 16.3802C32.7701 13.7682 29.2324 12.3997 25.4092 12.5282C21.5829 12.6568 17.9276 14.2654 15.1142 17.0608C15.0261 17.1483 14.9395 17.2373 14.853 17.3263C14.8089 17.3701 14.768 17.4137 14.7255 17.459L14.7206 17.4638C14.6584 17.5317 14.5978 17.5979 14.5356 17.6658C14.4864 17.7207 14.4388 17.7739 14.3897 17.8288C14.3651 17.8563 14.3437 17.8805 14.324 17.903L14.2912 17.9417C14.2485 17.9901 14.2041 18.0433 14.1613 18.0948C14.1234 18.1415 14.0873 18.1834 14.0511 18.2285C14.0247 18.2607 14.0016 18.2896 13.9787 18.3155L13.9424 18.3605C13.9375 18.3654 13.9341 18.3718 13.9309 18.375C13.8996 18.4121 13.8699 18.4506 13.8402 18.4892C13.7247 18.634 13.6156 18.7786 13.5081 18.9215C13.4782 18.9632 13.4485 19.0018 13.4202 19.0419L13.4103 19.0548C13.3871 19.0869 13.3655 19.1173 13.344 19.1478L13.329 19.1687C13.3008 19.2088 13.2726 19.2488 13.2427 19.2906C13.1614 19.4044 13.0865 19.515 13.0148 19.6254C12.9648 19.6991 12.9179 19.7759 12.8695 19.8511L12.8628 19.8607C12.8495 19.8799 12.8379 19.8975 12.8261 19.9183C12.7909 19.9743 12.7607 20.0254 12.7273 20.0766C12.7005 20.1214 12.6754 20.1613 12.6502 20.2045C12.6283 20.2412 12.6083 20.2732 12.5897 20.3067C12.5712 20.3371 12.5577 20.3626 12.5443 20.3849L12.5341 20.4041C12.514 20.4361 12.4955 20.4696 12.4769 20.5031C12.4449 20.5589 12.4179 20.6068 12.3925 20.6562C12.3705 20.6961 12.3519 20.7296 12.3301 20.7663C12.2691 20.8811 12.2082 20.9959 12.1503 21.1106C12.1334 21.1424 12.1197 21.1711 12.1044 21.2014L12.0909 21.2269C12.072 21.2666 12.0535 21.3001 12.0379 21.3367C12.0073 21.3972 11.9817 21.4497 11.9576 21.5038C11.937 21.5483 11.9198 21.5864 11.901 21.6262C11.8668 21.6994 11.8359 21.7662 11.8066 21.8345L11.717 22.0379C11.6894 22.1015 11.6634 22.1634 11.6374 22.2253C11.6235 22.2602 11.6097 22.292 11.5959 22.3238L11.5837 22.354C11.5629 22.4048 11.5436 22.4571 11.5227 22.5079C11.3988 22.8267 11.2841 23.1484 11.1851 23.4696C11.1727 23.506 11.1637 23.5361 11.1529 23.5709C11.1313 23.6405 11.1096 23.7132 11.0896 23.7812L11.0238 24.0183C11.0108 24.0673 10.9978 24.1194 10.9832 24.17C10.9388 24.3406 10.8958 24.5158 10.8536 24.7082C10.8422 24.7587 10.8324 24.8076 10.8211 24.8549L10.8136 24.8865C10.8039 24.9322 10.796 24.9732 10.7881 25.0142L10.7844 25.0299C10.7801 25.0583 10.7743 25.0851 10.7684 25.115L10.7664 25.1261C10.755 25.1765 10.7467 25.2269 10.7384 25.2773C10.7268 25.3341 10.7199 25.3891 10.7098 25.4442C10.7035 25.4836 10.6975 25.5167 10.6931 25.5481L10.6869 25.5875C10.6783 25.6441 10.6682 25.7024 10.6611 25.7606C10.6507 25.8251 10.6434 25.8895 10.6346 25.9525C10.6192 26.0641 10.6054 26.1742 10.593 26.2889C10.5885 26.3235 10.5856 26.3565 10.5826 26.3926L13.2923 26.3015C13.6203 23.549 14.9104 20.9364 16.9491 18.9108C21.6593 14.2308 29.0296 13.9832 33.3771 18.3587C35.4966 20.4919 36.5865 23.3863 36.449 26.5066C36.3827 27.9664 36.0352 29.4499 35.4351 30.8259Z" fill="#FFBB00"/>
</g>
<path d="M66.8076 27.4927C66.5986 28.4264 66.2004 29.138 65.6258 29.6277C65.0382 30.0978 64.3266 30.3394 63.4778 30.3394C62.7857 30.3394 62.1459 30.1631 61.5387 29.8171C60.9511 29.471 60.5137 28.9356 60.2394 28.224C59.9391 27.5123 59.802 26.6636 59.802 25.7103C59.802 24.966 59.926 24.2348 60.1676 23.5427C60.4092 22.8441 60.827 22.2892 61.4016 21.8778C61.9892 21.4796 62.7335 21.2706 63.6019 21.2706C64.3657 21.2706 64.986 21.4469 65.4887 21.8256C65.9915 22.1912 66.3701 22.7788 66.6313 23.595L66.6639 23.6798L68.4006 23.2816L68.368 23.1771C68.0415 22.0998 67.467 21.2511 66.6509 20.6439C65.8348 20.0563 64.8293 19.7625 63.6345 19.7625C62.5964 19.7625 61.6236 19.991 60.7356 20.4545C59.8738 20.9377 59.1817 21.6297 58.7117 22.5373C58.2416 23.4383 58 24.509 58 25.7103C58 26.8203 58.2089 27.878 58.6268 28.8312C59.0446 29.804 59.6649 30.5679 60.481 31.0706C61.2775 31.5929 62.3352 31.8541 63.6214 31.8541C64.8554 31.8541 65.9131 31.5081 66.7749 30.8486C67.6433 30.1892 68.2309 29.2033 68.5639 27.9367L68.5965 27.8323L66.8467 27.4013L66.8076 27.4927Z" fill="white"/>
<path d="M82.6924 20.5264C81.8044 20.0041 80.799 19.7429 79.7086 19.7429C78.0242 19.7429 76.64 20.2979 75.5823 21.3882C74.5246 22.4786 73.9893 24.0259 73.9893 25.9454C73.9893 26.9705 74.2178 27.9368 74.6813 28.8574C75.1318 29.7779 75.8108 30.5027 76.6922 31.0446C77.5737 31.5799 78.5856 31.8411 79.689 31.8411C80.7271 31.8411 81.7 31.5995 82.5814 31.1098C83.4824 30.6398 84.1744 29.915 84.6772 28.9749C85.1603 28.0543 85.4084 26.9835 85.4084 25.8018C85.4084 24.6396 85.1668 23.6015 84.7163 22.681C84.2528 21.7734 83.5738 21.0422 82.6924 20.5264ZM82.503 29.1577C81.7718 29.9346 80.8186 30.3394 79.6956 30.3394C78.5856 30.3394 77.652 29.9412 76.9012 29.1773C76.1699 28.3938 75.7913 27.323 75.7913 25.9716C75.7913 24.2871 76.1895 23.0596 76.9534 22.348C77.7173 21.6363 78.6509 21.2707 79.7086 21.2707C80.4725 21.2707 81.145 21.46 81.7522 21.8257C82.3398 22.1913 82.8099 22.7267 83.1233 23.4057C83.4367 24.0847 83.5934 24.8943 83.5934 25.8149C83.5934 27.2512 83.2277 28.3807 82.503 29.1577Z" fill="white"/>
<path d="M100.569 20.2456L97.7743 28.2044C97.5458 28.8442 97.376 29.347 97.252 29.7452L96.7819 28.3611L93.994 20.1411H93.8047V24.3915L96.3902 31.8475H97.931L100.569 24.4045V20.2456Z" fill="white"/>
<path d="M93.178 20.1411H91.4805V31.8475H93.178V20.1411Z" fill="white"/>
<path d="M102.873 20.1411H101.189V31.8475H102.873V20.1411Z" fill="white"/>
<path d="M110.695 20.1411H108.945V31.8475H110.695V20.1411Z" fill="white"/>
<path d="M117.734 21.9627C117.473 21.4796 117.159 21.0813 116.748 20.8201C116.35 20.5394 115.847 20.35 115.272 20.2652C114.854 20.1803 114.247 20.1411 113.47 20.1411H111.322V21.7015H113.594C114.286 21.7015 114.757 21.7342 115.018 21.806C115.396 21.9105 115.71 22.1194 115.938 22.4458C116.18 22.7723 116.284 23.1575 116.284 23.6276C116.284 24.2544 116.095 24.7375 115.697 25.0835C115.298 25.4296 114.606 25.6059 113.634 25.6059H111.329V27.1859H113.62C115.285 27.1859 116.48 26.8202 117.12 26.1282C117.779 25.4361 118.106 24.5873 118.106 23.5819C118.099 22.9877 117.975 22.4458 117.734 21.9627Z" fill="white"/>
<path d="M128.741 20.1412L124.165 31.8477H126.019L126.541 30.4766H126.522L127.84 26.9248L128.121 26.1936L129.094 23.6081H129.114C129.322 23.0336 129.492 22.446 129.636 21.8714C129.812 22.4264 130.054 23.1054 130.347 23.8627L131.529 26.9118H128.532L127.997 28.3481H132.091L133.462 31.8346H135.453L130.563 20.1282H128.741V20.1412Z" fill="white"/>
<path d="M142.968 20.1411H141.336V31.8475H142.968V20.1411Z" fill="white"/>
<path d="M149.066 28.9356L149.033 28.8834V31.8475H150.763V20.1411H149.066V28.9356Z" fill="white"/>
<path d="M143.588 23.8888L148.407 30.9596V27.9628L143.588 20.905V23.8888Z" fill="white"/>
<path d="M165.917 20.1411L163.612 23.5753C163.162 24.2544 162.764 24.8942 162.418 25.4492V25.4296L161.445 26.9051V31.8475H163.214V26.9051L167.98 20.1411H165.917Z" fill="white"/>
<path d="M162.052 24.8224L161.327 23.6602L158.983 20.1411H156.835L161.066 26.3502L162.052 24.8224Z" fill="white"/>
<defs>
<clipPath id="clip0">
<rect width="36.5238" height="39.999" fill="white" transform="translate(0 25.7429) rotate(-44.8155)"/>
</clipPath>
</defs>
</svg>
