<svg width="24" height="20" viewBox="0 0 24 20" fill="none" xmlns="http://www.w3.org/2000/svg">
<path d="M21.1875 0H2.8125C1.26169 0 0 1.29404 0 2.88462V5.26418L10.3215 13.1383C10.8234 13.5212 11.4117 13.7127 12 13.7127C12.5883 13.7127 13.1766 13.5213 13.6785 13.1383L24 5.26418V2.88462C24 1.29404 22.7383 0 21.1875 0ZM22.125 4.29788L12.5595 11.5952C12.2249 11.8505 11.7751 11.8505 11.4405 11.5952L1.875 4.29788V2.88462C1.875 2.35442 2.29556 1.92308 2.8125 1.92308H21.1875C21.7044 1.92308 22.125 2.35442 22.125 2.88462V4.29788ZM22.125 9.0913L24 7.66091V17.1154C24 18.706 22.7383 20 21.1875 20H2.8125C1.26169 20 0 18.706 0 17.1154V7.66091L1.875 9.0913V17.1154C1.875 17.6456 2.29556 18.0769 2.8125 18.0769H21.1875C21.7044 18.0769 22.125 17.6456 22.125 17.1154V9.0913Z" fill="#FFBB00"/>
</svg>
