<svg width="19" height="24" viewBox="0 0 19 24" fill="none" xmlns="http://www.w3.org/2000/svg">
<path d="M0.483418 10.2766C0.613777 11.2932 0.871324 12.3678 1.24892 13.4705C1.76706 14.9837 2.49902 16.504 3.42461 17.9889C4.56553 19.8195 6.00698 21.6041 7.7089 23.2929C8.15478 23.7354 8.74635 23.9792 9.37459 23.9792C10.0028 23.9792 10.5944 23.7354 11.0403 23.2929C12.7422 21.6041 14.1837 19.8195 15.3246 17.989C16.2501 16.504 16.9821 14.9838 17.5003 13.4705C17.8779 12.3679 18.1354 11.2933 18.2657 10.2766C18.3552 9.57879 18.3554 9.12837 18.3515 8.96941C18.348 7.76773 18.1104 6.60113 17.6453 5.50144C17.1931 4.4323 16.5461 3.47244 15.7222 2.64856C14.8983 1.82469 13.9385 1.17767 12.8693 0.725446C11.7614 0.256853 10.5857 0.0192871 9.37455 0.0192871C8.16345 0.0192871 6.98765 0.256893 5.87983 0.725446C4.81064 1.17767 3.85083 1.82469 3.02695 2.64856C2.20303 3.47244 1.55606 4.4323 1.10383 5.50144C0.638733 6.60109 0.401207 7.76777 0.397716 8.96941C0.393784 9.12833 0.393945 9.57875 0.483418 10.2766ZM9.8295 22.0729C9.70355 22.1978 9.53905 22.2603 9.37455 22.2603C9.21005 22.2603 9.04554 22.1978 8.91964 22.0729C1.87178 15.079 2.11629 9.0011 2.11653 8.99621V8.99617C2.11653 4.98763 5.36606 1.7381 9.37455 1.7381C13.383 1.7381 16.6326 4.98763 16.6326 8.99613V8.99617C16.6328 9.0011 16.8773 15.079 9.8295 22.0729Z" fill="#FFBB00"/>
<path d="M9.37513 24C8.74155 24 8.14501 23.7542 7.69531 23.3079C5.99227 21.618 4.54986 19.8322 3.40809 18.0003C2.48182 16.5142 1.74914 14.9926 1.23047 13.4778C0.852476 12.3738 0.594608 11.2979 0.464049 10.2799C0.374576 9.58193 0.374215 9.13111 0.378187 8.96966C0.381677 7.76582 0.619765 6.5964 1.08587 5.49439C1.53914 4.4228 2.1876 3.46078 3.01328 2.63513C3.83901 1.80941 4.80103 1.16095 5.87254 0.707723C6.98294 0.238128 8.16138 0 9.37513 0C10.589 0 11.7674 0.238128 12.8777 0.707763C13.9492 1.16095 14.9112 1.80945 15.7369 2.63517C16.5626 3.46086 17.2111 4.42284 17.6643 5.49443C18.1304 6.59644 18.3686 7.76586 18.3721 8.97014C18.376 9.13135 18.3756 9.58261 18.2862 10.28C18.1556 11.2981 17.8977 12.374 17.5197 13.4778C17.0012 14.9925 16.2685 16.5141 15.3421 18.0004C14.2004 19.8323 12.758 21.618 11.055 23.3079C10.6052 23.7542 10.0087 24 9.37513 24ZM9.37513 0.0401226C8.16675 0.0401226 6.99361 0.277167 5.88823 0.744716C4.82149 1.1959 3.86376 1.84147 3.04173 2.66354C2.21974 3.48549 1.57412 4.44322 1.1229 5.51004C0.658925 6.60712 0.42188 7.77127 0.41839 8.97022C0.414418 9.13119 0.414779 9.5796 0.503931 10.2748C0.634129 11.2901 0.891356 12.3634 1.26851 13.4648C1.78621 14.9767 2.51753 16.4955 3.44223 17.9791C4.58232 19.8084 6.0228 21.5917 7.72364 23.2795C8.16575 23.7183 8.7523 23.9599 9.37521 23.9599C9.99807 23.9599 10.5846 23.7183 11.0268 23.2794C12.7276 21.5917 14.1681 19.8083 15.3082 17.9791C16.2329 16.4954 16.9642 14.9766 17.4819 13.4647C17.859 12.3635 18.1162 11.2903 18.2464 10.2748C18.3356 9.58016 18.336 9.13131 18.332 8.97062C18.3285 7.77123 18.0915 6.60708 17.6275 5.51C17.1763 4.44318 16.5306 3.48549 15.7086 2.6635C14.8866 1.84147 13.9289 1.19586 12.8622 0.744676C11.7567 0.277167 10.5835 0.0401226 9.37513 0.0401226ZM9.37513 22.2811C9.19823 22.2811 9.03164 22.2125 8.90609 22.0879C1.88864 15.1241 2.09419 9.05652 2.09708 8.99606C2.09708 4.98383 5.36202 1.71885 9.37517 1.71885C13.3883 1.71885 16.6533 4.98379 16.6533 8.99694C16.6557 9.05857 16.705 10.5523 15.8931 12.9227C15.4165 14.314 14.7402 15.7168 13.8827 17.0923C12.8114 18.8111 11.4526 20.4918 9.84428 22.0879C9.71862 22.2125 9.55199 22.2811 9.37513 22.2811ZM9.37513 1.75894C5.38409 1.75894 2.13716 5.0059 2.13716 8.99694C2.13648 9.01295 2.08272 10.5397 2.89677 12.9142C3.37258 14.3021 4.04772 15.7017 4.90346 17.074C5.97289 18.7891 7.32907 20.4664 8.93434 22.0594C9.05238 22.1765 9.2089 22.241 9.37513 22.241C9.54136 22.241 9.69791 22.1765 9.81592 22.0594C11.4224 20.4652 12.7794 18.7866 13.8492 17.0701C14.705 15.697 15.38 14.2968 15.8555 12.9083C16.5031 11.0172 16.6342 9.52339 16.6131 8.99774C16.6131 5.00594 13.3662 1.75894 9.37513 1.75894Z" fill="#FFBB00"/>
<path d="M12.2035 5.61603C11.8365 5.24907 11.4088 4.96082 10.9324 4.75932C10.4384 4.5504 9.91447 4.44446 9.37501 4.44446C8.83556 4.44446 8.31158 4.5504 7.81766 4.75932C7.3412 4.96085 6.91356 5.2491 6.5466 5.61603C6.17964 5.98299 5.89139 6.41067 5.68986 6.8871C5.48091 7.38102 5.375 7.905 5.375 8.44446C5.375 8.98392 5.48091 9.50789 5.68986 10.0018C5.89139 10.4783 6.17961 10.906 6.5466 11.2729C6.91356 11.6398 7.3412 11.9281 7.81766 12.1296C8.31161 12.3385 8.83556 12.4445 9.37501 12.4445C9.91447 12.4445 10.4384 12.3385 10.9324 12.1296C11.4088 11.9281 11.8365 11.6398 12.2034 11.2729C12.5704 10.906 12.8586 10.4783 13.0602 10.0018C13.2691 9.50789 13.375 8.98392 13.375 8.44446C13.375 7.905 13.2691 7.38102 13.0602 6.8871C12.8586 6.41067 12.5704 5.98299 12.2035 5.61603ZM9.37501 11.2228C7.84059 11.2228 6.59667 9.97894 6.59667 8.44449C6.59667 6.91003 7.84059 5.66617 9.37501 5.66617C10.9094 5.66617 12.1534 6.91006 12.1534 8.44452C12.1534 9.97897 10.9094 11.2228 9.37501 11.2228Z" fill="#FFBB00"/>
<path d="M9.37496 14.4132C8.61331 14.4132 7.87349 14.2636 7.17599 13.9687C6.50318 13.684 5.89937 13.2771 5.38131 12.759C4.86324 12.241 4.45624 11.6372 4.17161 10.9643C3.87663 10.267 3.72705 9.52714 3.72705 8.76534C3.72705 8.00353 3.87663 7.26375 4.17161 6.56637C4.4562 5.89356 4.8632 5.28975 5.38131 4.77165C5.89941 4.2535 6.50326 3.84654 7.17599 3.56199C7.87345 3.26701 8.61327 3.11743 9.37496 3.11743C10.1366 3.11743 10.8764 3.26701 11.5739 3.56199C12.2467 3.84658 12.8505 4.25354 13.3686 4.77165C13.8867 5.28975 14.2938 5.89356 14.5783 6.56637C14.8733 7.26375 15.0229 8.00357 15.0229 8.76534C15.0229 9.5271 14.8733 10.2669 14.5783 10.9643C14.2937 11.6371 13.8867 12.2409 13.3686 12.759C12.8506 13.277 12.2467 13.6841 11.5739 13.9687C10.8765 14.2636 10.1366 14.4132 9.37496 14.4132ZM9.37496 3.15747C8.61868 3.15747 7.88408 3.30597 7.1916 3.59886C6.52364 3.88141 5.92409 4.28552 5.40963 4.79997C4.89522 5.31439 4.49111 5.91394 4.20852 6.58198C3.91563 7.27438 3.76713 8.00894 3.76713 8.76534C3.76713 9.52173 3.91563 10.2563 4.20852 10.9486C4.49111 11.6167 4.89526 12.2163 5.40963 12.7306C5.92405 13.245 6.52356 13.6492 7.1916 13.9317C7.88412 14.2246 8.61868 14.3731 9.37496 14.3731C10.1312 14.3731 10.8658 14.2246 11.5583 13.9317C12.2263 13.6491 12.8259 13.2451 13.3403 12.7306C13.8547 12.2162 14.2588 11.6167 14.5414 10.9486C14.8343 10.2563 14.9828 9.52169 14.9828 8.76534C14.9828 8.00898 14.8343 7.27438 14.5414 6.58198C14.2588 5.91398 13.8547 5.31443 13.3403 4.79997C12.8258 4.28552 12.2263 3.88141 11.5583 3.59886C10.8658 3.30597 10.1312 3.15747 9.37496 3.15747ZM9.37496 12.6944C7.20845 12.6944 5.44587 10.9318 5.44587 8.7653C5.44587 6.59879 7.20845 4.83625 9.37496 4.83625C11.5415 4.83625 13.304 6.59883 13.304 8.76534C13.304 10.9318 11.5415 12.6944 9.37496 12.6944ZM9.37496 4.87637C7.23056 4.87637 5.48599 6.62094 5.48599 8.7653C5.48599 10.9097 7.23056 12.6543 9.37496 12.6543C11.5193 12.6543 13.2639 10.9097 13.2639 8.76534C13.2639 6.62094 11.5193 4.87637 9.37496 4.87637Z" fill="#FFBB00"/>
</svg>
