<svg width="32" height="32" viewBox="0 0 32 32" fill="none" xmlns="http://www.w3.org/2000/svg">
<path fill-rule="evenodd" clip-rule="evenodd" d="M32 15.6694C32 7.01677 24.8352 0 16 0C7.16479 0 0 7.01677 0 15.6694C0 24.3221 7.16479 31.3389 16 31.3389C24.8352 31.3389 32 24.3221 32 15.6694ZM23.4805 17.8431C24.0034 18.3383 24.544 18.8504 25.0225 19.4239C25.2861 19.7416 25.5858 20.1255 25.8168 20.5716C26.0382 21.0006 26.0415 21.4846 25.8257 21.8666C25.6465 22.1839 25.3414 22.3793 24.9885 22.4028C24.9788 22.4035 24.9691 22.4038 24.9594 22.4038H24.9592L21.8996 22.4023C21.0481 22.4677 20.2782 22.1555 19.6103 21.4747C19.3152 21.1741 19.0335 20.859 18.7611 20.5542L18.7606 20.5536L18.7446 20.5358C18.6215 20.3981 18.4948 20.2564 18.3692 20.1189C18.24 19.9779 18.0829 19.8172 17.9004 19.6987C17.8006 19.6338 17.7108 19.6028 17.6602 19.6155C17.6126 19.6275 17.5522 19.6929 17.4986 19.7906C17.3072 20.1395 17.252 20.5411 17.2281 21.0368C17.1853 21.9748 16.7935 22.3579 15.8304 22.4017C15.6474 22.4105 15.4668 22.4148 15.2893 22.4148C13.7283 22.4148 12.3828 22.0803 11.1897 21.3978C10.0542 20.7481 9.06986 19.8285 8.09202 18.5036C6.70326 16.6219 5.48612 14.4535 4.14567 11.4727C3.95815 11.0553 3.95175 10.7041 4.12659 10.4286C4.30121 10.1537 4.62065 10.0103 5.07616 10.0024C6.04193 9.98359 7.03257 9.98316 8.1037 10.001C8.66591 10.0092 9.10445 10.328 9.33773 10.8988C9.90419 12.2916 10.5563 13.5005 11.3315 14.5951L11.3317 14.5954C11.5258 14.8692 11.7264 15.1523 11.9926 15.3345C12.0358 15.364 12.0669 15.3795 12.087 15.3875C12.0995 15.3699 12.1175 15.3399 12.1379 15.2915C12.2118 15.1166 12.2576 14.9063 12.2823 14.6296C12.3706 13.5991 12.3559 12.7479 12.2359 11.9523C12.1753 11.5428 11.9793 11.3286 11.6003 11.2566C11.4927 11.2363 11.1649 11.1742 11.0549 10.8631C10.9463 10.5559 11.1594 10.3045 11.2398 10.2097L11.2399 10.2096C11.5174 9.88472 11.8634 9.5851 12.5177 9.5851H15.9954C16.0239 9.5851 16.0523 9.58785 16.0803 9.59339C16.9525 9.76552 17.0987 10.318 17.1737 10.8691C17.1763 10.8886 17.1777 10.9082 17.1777 10.9279L17.1807 14.7909L17.1805 14.8036C17.1757 14.9756 17.2811 15.3039 17.3724 15.3613C17.4205 15.3384 17.5139 15.2387 17.5713 15.1774L17.5718 15.1769L17.6093 15.137C18.4525 14.2421 19.0343 13.168 19.4921 12.2354C19.7314 11.7524 19.9379 11.2431 20.1128 10.8037C20.3314 10.2536 20.7323 9.9796 21.3104 9.98922L24.6536 9.99219C24.7688 9.99219 24.8925 9.99403 25.0229 10.0164C25.2899 10.0618 25.6688 10.1611 25.8731 10.496C26.0774 10.8308 25.9927 11.2122 25.9112 11.4699C25.6256 12.3688 25.0927 13.1065 24.5773 13.8199L24.518 13.9019C24.2538 14.2675 23.9782 14.6309 23.7116 14.9824C23.4117 15.3778 23.1017 15.7867 22.8108 16.1949C22.6163 16.4663 22.5318 16.6499 22.5441 16.7737C22.5567 16.8996 22.6772 17.07 22.9235 17.3102L22.9236 17.3103C23.1034 17.4859 23.29 17.6627 23.4708 17.8339L23.4805 17.8431ZM24.9415 21.5273C24.9683 21.5241 25.0203 21.5104 25.0625 21.4357C25.1141 21.3444 25.1387 21.1686 25.0383 20.9741C24.8459 20.6025 24.5819 20.2653 24.349 19.9846C23.9045 19.4519 23.4064 18.9801 22.8791 18.4806L22.878 18.4795C22.6919 18.3033 22.4994 18.121 22.3117 17.9377C21.5173 17.1629 21.4614 16.5736 22.0979 15.6854C22.3957 15.2675 22.7097 14.8534 23.0135 14.4529L23.0195 14.4449C23.2812 14.0998 23.5515 13.7433 23.8077 13.3888L23.867 13.3066L23.8673 13.3062C24.364 12.6188 24.8331 11.9695 25.0759 11.2052C25.1241 11.0528 25.1246 10.9797 25.1223 10.9543C25.1007 10.9406 25.035 10.9076 24.8755 10.8804C24.8125 10.8696 24.7312 10.8687 24.6533 10.8687L21.3059 10.8657L21.2977 10.8657C21.1007 10.8615 21.0181 10.8991 20.9273 11.1277C20.746 11.5834 20.5315 12.1121 20.2782 12.6232C19.7923 13.613 19.1703 14.7585 18.2466 15.7388L18.2117 15.776C18.0154 15.9857 17.6498 16.3759 17.097 16.1952C17.092 16.1936 17.087 16.1919 17.082 16.19C16.4748 15.9669 16.2965 15.1531 16.3042 14.7862L16.3013 10.9588C16.2819 10.8221 16.2501 10.6472 16.1945 10.5733L16.1945 10.5732C16.1813 10.5558 16.1431 10.505 15.95 10.4617H12.5178C12.3778 10.4617 12.277 10.4811 12.1876 10.5277C12.6913 10.7561 13.0111 11.2035 13.1029 11.8228C13.2332 12.6872 13.2499 13.6037 13.1555 14.706C13.1225 15.0775 13.0557 15.3715 12.9454 15.6326C12.7743 16.0377 12.5202 16.1868 12.3372 16.2405C12.1542 16.2941 11.8601 16.306 11.4976 16.0578C11.1019 15.7871 10.8327 15.4071 10.6164 15.1018L10.6164 15.1017C9.80171 13.9516 9.11803 12.685 8.52617 11.2297C8.40088 10.9232 8.2354 10.8795 8.09008 10.8774C7.02862 10.8597 6.04833 10.8602 5.09236 10.8787C4.97754 10.8808 4.91206 10.8953 4.87854 10.9063C4.8828 10.9417 4.89749 11.0077 4.9451 11.1135C6.25888 14.035 7.44697 16.1537 8.79726 17.9833C9.70026 19.2067 10.5988 20.05 11.625 20.6371C12.8046 21.312 14.1668 21.6027 15.79 21.5264C16.1278 21.511 16.229 21.4604 16.2593 21.4316C16.2824 21.4096 16.3378 21.3232 16.3527 20.9959C16.3786 20.4608 16.4422 19.8944 16.7302 19.3694C16.9526 18.9636 17.2423 18.8171 17.4461 18.7657C17.652 18.7138 17.9809 18.706 18.3778 18.9636C18.6429 19.1358 18.8491 19.3452 19.016 19.5275C19.1472 19.6711 19.2778 19.8172 19.4043 19.9587L19.4141 19.9697C19.68 20.2671 19.9549 20.5746 20.2358 20.8609C20.7312 21.3658 21.2434 21.5776 21.8461 21.5274C21.858 21.5264 21.8701 21.5259 21.8822 21.5259H21.8825L24.9415 21.5273Z" fill="white"/>
</svg>
