<svg width="32" height="32" viewBox="0 0 32 32" fill="none" xmlns="http://www.w3.org/2000/svg">
<path d="M16 0C24.8352 0 32 7.01677 32 15.6694C32 24.3221 24.8352 31.3389 16 31.3389C7.16479 31.3389 0 24.3221 0 15.6694C0 7.01677 7.16479 0 16 0ZM15.6609 24.7926C15.6611 24.7926 15.6606 24.7926 15.6609 24.7926H15.6648C17.2676 24.7919 18.8425 24.3984 20.2412 23.6514L25.3176 24.9552L23.959 20.0968C24.7971 18.6751 25.238 17.0622 25.2373 15.4098C25.2351 10.2405 20.9392 6.03504 15.6609 6.03504C13.0994 6.03599 10.6948 7.01246 8.88696 8.78441C7.07886 10.5566 6.08374 12.9122 6.08472 15.4172C6.08691 20.5867 10.3833 24.7926 15.6609 24.7926Z" fill="white"/>
<path d="M15.6582 7.61865C20.0486 7.61865 23.6191 11.114 23.6211 15.4106C23.6216 16.8829 23.2007 18.3168 22.4041 19.5575L22.2148 19.8523L23.019 22.7279L20.0066 21.9542L19.7158 22.123C18.4939 22.8331 17.093 23.2087 15.6648 23.2092H15.6616C11.2746 23.2092 7.70409 19.7136 7.70213 15.4168C7.7014 13.3345 8.52855 11.3768 10.0312 9.90394C11.5339 8.4311 13.5325 7.61937 15.6582 7.61865ZM10.9766 18.7608C11.176 19.3078 12.1318 19.8073 12.5915 19.8747C13.0039 19.935 13.5254 19.9601 14.0986 19.782C14.4463 19.6739 14.8918 19.5297 15.4629 19.2885C17.863 18.2738 19.4307 15.9077 19.5503 15.7513C19.6699 15.5949 20.5273 14.481 20.5273 13.3278C20.5273 12.1749 19.9092 11.608 19.6899 11.3737C19.4705 11.1391 19.2112 11.0805 19.0518 11.0805C18.8923 11.0805 18.7327 11.082 18.5933 11.0887C18.4463 11.0958 18.249 11.0339 18.0549 11.4908C17.8555 11.9599 17.3769 13.1129 17.3171 13.23C17.2573 13.3474 17.2175 13.4842 17.2971 13.6405C17.3769 13.7969 17.6421 14.1343 17.8953 14.4418C18.0015 14.5706 18.1399 14.6854 18.0002 14.9199C17.8608 15.1543 17.3804 15.9215 16.6692 16.5427C15.7551 17.3408 14.9841 17.588 14.7449 17.7054C14.5059 17.8226 14.3662 17.803 14.2266 17.6468C14.0871 17.4905 13.6284 16.9628 13.469 16.7282C13.3096 16.4937 13.1499 16.5329 12.9307 16.6111C12.7112 16.689 11.5349 17.2559 11.2956 17.3731C11.0564 17.4905 10.897 17.5491 10.8371 17.6468C10.7771 17.7446 10.7771 18.2135 10.9766 18.7608Z" fill="white"/>
</svg>
