<svg width="126" height="83" viewBox="0 0 126 83" fill="none" xmlns="http://www.w3.org/2000/svg">
<path d="M40.0948 64.3366C39.5679 64.3366 39.1408 64.7638 39.1408 65.2906C39.1408 65.8868 38.6557 66.3718 38.0595 66.3718C37.4634 66.3718 36.9783 65.8868 36.9783 65.2906C36.9783 64.6944 37.4634 64.2094 38.0595 64.2094C38.5864 64.2094 39.0136 63.7823 39.0136 63.2554C39.0136 62.7285 38.5864 62.3014 38.0595 62.3014C36.4113 62.3014 35.0703 63.6423 35.0703 65.2906C35.0703 66.9389 36.4113 68.2799 38.0595 68.2799C39.7078 68.2799 41.0488 66.9389 41.0488 65.2906C41.0488 64.7638 40.6216 64.3366 40.0948 64.3366Z" fill="url(#paint0_linear)"/>
<path d="M71.6407 63.3189C71.1139 63.3189 70.6867 63.7461 70.6867 64.273C70.6867 65.4302 69.7452 66.3718 68.5879 66.3718C67.4306 66.3718 66.4891 65.4302 66.4891 64.273C66.4891 63.1157 67.4306 62.1741 68.5879 62.1741C69.1148 62.1741 69.5419 61.747 69.5419 61.2201C69.5419 60.6933 69.1148 60.2661 68.5879 60.2661C66.3785 60.2661 64.5811 62.0636 64.5811 64.273C64.5811 66.4823 66.3785 68.2798 68.5879 68.2798C70.7973 68.2798 72.5948 66.4823 72.5948 64.273C72.5948 63.7461 72.1676 63.3189 71.6407 63.3189Z" fill="url(#paint1_linear)"/>
<path d="M95.046 66.3718H79.7818C79.7467 66.3718 79.7182 66.3433 79.7182 66.3082V49.0088C79.7182 47.9216 78.8338 47.0371 77.7466 47.0371H75.6477V26.6213C75.6477 25.5341 74.7633 24.6497 73.6761 24.6497H67.5704C67.0436 24.6497 66.6164 25.0768 66.6164 25.6037C66.6164 26.1305 67.0436 26.5577 67.5704 26.5577H69.6693V53.1962C69.312 53.162 68.9516 53.1428 68.5881 53.1428C68.2232 53.1428 67.8628 53.161 67.5068 53.1955V48.0642C67.5068 47.1835 67.2741 46.3149 66.8337 45.5521L59.3415 32.5744C58.5072 30.8498 56.7363 29.7377 54.8185 29.7377H40.0949C38.4466 29.7377 37.1057 31.0787 37.1057 32.727V50.09H36.0245C33.8151 50.09 32.0176 51.8875 32.0176 54.0968V61.2201C32.0176 61.3359 32.0392 61.4464 32.0771 61.5491C31.3957 62.6347 31 63.9169 31 65.2906C31 69.1833 34.1669 72.3502 38.0597 72.3502C41.2681 72.3502 43.9816 70.1981 44.8371 67.2622H58.6081C58.6102 67.2622 58.6123 67.2624 58.6144 67.2624C58.6163 67.2624 58.6181 67.2622 58.62 67.2622H61.0865C62.2775 70.2401 65.19 72.3502 68.5879 72.3502C73.0418 72.3502 76.6652 68.7268 76.6652 64.2729C76.6652 62.8442 76.2907 61.5019 75.6372 60.3362C75.6433 60.2924 75.6476 60.248 75.6476 60.2025V56.182C75.6493 56.15 75.6491 56.1178 75.6476 56.0859V48.9452H77.7464C77.7816 48.9452 77.81 48.9737 77.81 49.0088V66.3082C77.81 67.3954 78.6945 68.2798 79.7817 68.2798H95.0459C95.5727 68.2798 95.9999 67.8527 95.9999 67.3258C95.9999 66.7989 95.5729 66.3718 95.046 66.3718ZM73.6761 26.5577C73.7112 26.5577 73.7397 26.5862 73.7397 26.6213V47.0371H71.5773V26.5577H73.6761ZM57.6349 33.4281C57.6459 33.4514 57.6579 33.4743 57.6709 33.4967L64.9005 46.0195H50.2074V34.7622C50.2074 34.2353 49.7803 33.8082 49.2534 33.8082C48.7266 33.8082 48.2994 34.2353 48.2994 34.7622V46.0195H46.2006C45.0433 46.0195 44.1018 45.078 44.1018 43.9207V31.6457H54.8185C56.0165 31.6457 57.122 32.3454 57.6349 33.4281ZM39.0137 32.727C39.0137 32.1308 39.4987 31.6457 40.0949 31.6457H42.1937V43.9207C42.1937 46.1301 43.9912 47.9275 46.2006 47.9275H65.5352C65.5552 47.9275 65.5747 47.9258 65.5942 47.9246C65.5963 47.9711 65.5988 48.0176 65.5988 48.0642V53.551C64.2834 53.9182 63.0657 54.5215 61.9941 55.3122L58.8396 52.1576C57.5061 50.8243 55.7333 50.09 53.8477 50.09H39.0137V32.727ZM38.0597 70.4422C35.219 70.4422 32.908 68.1312 32.908 65.2906C32.908 62.4499 35.219 60.1389 38.0597 60.1389C40.9004 60.1389 43.2113 62.4499 43.2113 65.2906C43.2113 68.1312 40.9004 70.4422 38.0597 70.4422ZM38.0597 58.2309C36.5166 58.2309 35.0886 58.7299 33.9256 59.5731V54.0968C33.9256 52.9395 34.8672 51.998 36.0245 51.998H53.8477C55.2238 51.998 56.5174 52.5339 57.4905 53.5069L60.5578 56.5742C58.6389 58.5748 57.4579 61.2885 57.4579 64.2729C57.4579 64.6342 57.4762 64.9953 57.511 65.3542H45.1178C45.118 65.3329 45.1195 65.3119 45.1195 65.2906C45.1194 61.3978 41.9524 58.2309 38.0597 58.2309ZM59.4313 65.3542C59.3896 64.9961 59.3659 64.6348 59.3659 64.2729C59.3659 59.1878 63.5029 55.0508 68.5881 55.0508C70.4455 55.0508 72.2162 55.5941 73.7397 56.6241V58.0569C72.3405 56.8953 70.5445 56.1956 68.5881 56.1956C64.1342 56.1956 60.5108 59.8191 60.5108 64.2729C60.5108 64.6398 60.5376 65.0002 60.5852 65.3542H59.4313ZM68.5881 70.4422C65.1863 70.4422 62.4188 67.6747 62.4188 64.2729C62.4188 60.8712 65.1863 58.1037 68.5881 58.1037C71.9898 58.1037 74.7573 60.8712 74.7573 64.2729C74.7573 67.6747 71.9898 70.4422 68.5881 70.4422ZM73.7397 54.4027C73.0491 54.0406 72.3251 53.7558 71.5773 53.5482V48.9452H73.7397V54.4027Z" fill="url(#paint2_linear)"/>
<defs>
<linearGradient id="paint0_linear" x1="38.0595" y1="62.3014" x2="38.0595" y2="68.2799" gradientUnits="userSpaceOnUse">
<stop stop-color="#FFBB00"/>
<stop offset="1" stop-color="#FFA700"/>
</linearGradient>
<linearGradient id="paint1_linear" x1="68.5879" y1="60.2661" x2="68.5879" y2="68.2798" gradientUnits="userSpaceOnUse">
<stop stop-color="#FFBB00"/>
<stop offset="1" stop-color="#FFA700"/>
</linearGradient>
<linearGradient id="paint2_linear" x1="63.4999" y1="24.6497" x2="63.4999" y2="72.3502" gradientUnits="userSpaceOnUse">
<stop stop-color="#FFBB00"/>
<stop offset="1" stop-color="#FFA700"/>
</linearGradient>
</defs>
</svg>
