<svg width="126" height="83" viewBox="0 0 126 83" fill="none" xmlns="http://www.w3.org/2000/svg">
<path d="M39.8169 65.9025C39.8169 67.4482 41.0744 68.7057 42.6201 68.7057C44.1658 68.7057 45.4233 67.4482 45.4233 65.9025C45.4233 64.9054 44.8868 63.9755 44.0235 63.4756C43.5986 63.2295 43.1132 63.0994 42.6201 63.0994C41.0744 63.0994 39.8169 64.3569 39.8169 65.9025ZM43.634 65.9025C43.634 66.4616 43.1792 66.9165 42.6201 66.9165C42.061 66.9165 41.6062 66.4616 41.6062 65.9025C41.6062 65.3435 42.061 64.8886 42.6201 64.8886C42.7988 64.8886 42.9739 64.9354 43.1268 65.024C43.4397 65.2051 43.634 65.5418 43.634 65.9025Z" fill="url(#paint0_linear)"/>
<path d="M50.2544 68.7057C51.8 68.7057 53.0575 67.4482 53.0575 65.9025C53.0575 64.9054 52.5211 63.9755 51.6577 63.4756C51.2327 63.2295 50.7475 63.0994 50.2544 63.0994C48.7087 63.0994 47.4512 64.3569 47.4512 65.9025C47.4512 67.4482 48.7087 68.7057 50.2544 68.7057ZM50.2544 64.8886C50.433 64.8886 50.6082 64.9354 50.7611 65.024C51.074 65.2052 51.2683 65.5418 51.2683 65.9025C51.2683 66.4616 50.8134 66.9165 50.2544 66.9165C49.6953 66.9165 49.2404 66.4616 49.2404 65.9025C49.2404 65.3435 49.6953 64.8886 50.2544 64.8886Z" fill="url(#paint1_linear)"/>
<path d="M57.8886 68.7057C59.4343 68.7057 60.6918 67.4482 60.6918 65.9025C60.6918 64.9054 60.1554 63.9755 59.292 63.4756C58.867 63.2295 58.3818 63.0994 57.8886 63.0994C56.3429 63.0994 55.0854 64.3569 55.0854 65.9025C55.0854 67.4482 56.3429 68.7057 57.8886 68.7057ZM57.8886 64.8886C58.0673 64.8886 58.2424 64.9354 58.3953 65.024C58.7082 65.2052 58.9025 65.5418 58.9025 65.9025C58.9025 66.4616 58.4477 66.9165 57.8886 66.9165C57.3295 66.9165 56.8747 66.4616 56.8747 65.9025C56.8747 65.3435 57.3295 64.8886 57.8886 64.8886Z" fill="url(#paint2_linear)"/>
<path d="M65.5229 68.7057C67.0686 68.7057 68.3261 67.4482 68.3261 65.9025C68.3261 64.9054 67.7897 63.9755 66.9263 63.4756C66.5013 63.2295 66.016 63.0994 65.5229 63.0994C63.9772 63.0994 62.7197 64.3569 62.7197 65.9025C62.7197 67.4482 63.9772 68.7057 65.5229 68.7057ZM65.5229 64.8886C65.7016 64.8886 65.8767 64.9354 66.0296 65.024C66.3425 65.2052 66.5368 65.5418 66.5368 65.9025C66.5368 66.4616 66.082 66.9165 65.5229 66.9165C64.9638 66.9165 64.509 66.4616 64.509 65.9025C64.509 65.3435 64.9638 64.8886 65.5229 64.8886Z" fill="url(#paint3_linear)"/>
<path d="M43.5743 50.5744H44.5286C45.0227 50.5744 45.4232 50.1739 45.4232 49.6798C45.4232 49.1857 45.0227 48.7852 44.5286 48.7852H43.5743C43.0802 48.7852 42.6797 49.1857 42.6797 49.6798C42.6797 50.1739 43.0802 50.5744 43.5743 50.5744Z" fill="url(#paint4_linear)"/>
<path d="M43.5743 53.4373H44.5286C45.0227 53.4373 45.4232 53.0368 45.4232 52.5427C45.4232 52.0486 45.0227 51.6481 44.5286 51.6481H43.5743C43.0802 51.6481 42.6797 52.0486 42.6797 52.5427C42.6797 53.0368 43.0802 53.4373 43.5743 53.4373Z" fill="url(#paint5_linear)"/>
<path d="M95.6204 44.457L80.4078 15.7112C79.8222 14.3965 78.5039 13.4771 76.9742 13.4771C75.693 13.4771 74.5601 14.122 73.8816 15.1039C73.88 15.1059 73.8784 15.1075 73.8768 15.1096L59.3198 34.5113C59.1187 34.4852 58.9148 34.4711 58.7086 34.4711H52.163C49.565 34.4711 47.4513 36.5848 47.4513 39.1828V44.9681H41.666C40.1203 44.9681 38.8628 46.2256 38.8628 47.7713V54.4512C38.8628 55.9969 40.1203 57.2544 41.666 57.2544H48.3459H49.3598V59.2822H42.6203C38.9698 59.2822 36 62.252 36 65.9025C36 69.553 38.9698 72.5228 42.6203 72.5228H65.5229C69.1733 72.5228 72.1431 69.553 72.1431 65.9025C72.1431 62.252 69.1733 59.2822 65.5229 59.2822H58.7833V57.2544H66.4771C66.9712 57.2544 67.3718 56.8538 67.3718 56.3598V53.4374L68.3858 53.4373C68.3979 53.4373 68.4095 53.436 68.4215 53.4355C68.4401 53.4348 68.4588 53.4345 68.4772 53.4326C68.4866 53.4317 68.4955 53.4297 68.5048 53.4285C68.5252 53.4257 68.5459 53.4232 68.5658 53.4192C68.582 53.4158 68.5978 53.411 68.6136 53.4069C68.6263 53.4035 68.6392 53.4009 68.6516 53.3971C68.6614 53.394 68.6707 53.3899 68.6803 53.3866C68.6983 53.3804 68.7163 53.3744 68.7338 53.367C68.7358 53.3662 68.7377 53.365 68.7398 53.3642C68.7911 53.342 68.84 53.3155 68.8857 53.2846C68.8972 53.2769 68.9079 53.268 68.919 53.2598C68.9309 53.251 68.9432 53.2426 68.9547 53.2332C68.9668 53.2232 68.9781 53.2121 68.9896 53.2015C68.9992 53.1928 69.0091 53.1845 69.0183 53.1755C69.0266 53.1671 69.034 53.158 69.042 53.1493C69.0534 53.1369 69.0652 53.1249 69.076 53.1119C69.0799 53.1071 69.0833 53.1019 69.0871 53.097C69.101 53.0793 69.1149 53.0617 69.1274 53.0429C69.1331 53.0345 69.1379 53.0254 69.1434 53.0167C69.1533 53.0011 69.1633 52.9856 69.1722 52.9692C69.2223 52.877 69.2557 52.7746 69.2708 52.6662C69.2764 52.6258 69.2803 52.5848 69.2803 52.5428V49.1284C69.2803 47.439 68.785 45.8031 67.8478 44.3973L66.43 42.2707L76.2586 25.7698L90.7749 47.2715C91.1139 47.8522 91.6554 48.3002 92.3022 48.5187V49.9959L92.0412 49.3464C91.9527 49.1262 91.7804 48.9503 91.5623 48.8571C91.344 48.7639 91.0977 48.7613 90.8776 48.8497L78.6514 53.7613L76.5451 52.0247C76.1639 51.7104 75.6 51.7647 75.2857 52.1459C74.9714 52.5272 75.0256 53.091 75.4069 53.4053L82.0102 58.8492C83.2167 59.8438 84.7096 60.3619 86.2213 60.3619C87.0532 60.3619 87.8909 60.2049 88.6894 59.8841L91.7339 58.6611C93.0465 58.1338 93.8986 56.9444 94.0616 55.6309C94.0804 55.5588 94.0914 55.4835 94.0914 55.4055V48.5187C95.1996 48.1444 96 47.0957 96 45.8627C96 45.3507 95.8613 44.8705 95.6204 44.457ZM47.4513 55.4651H41.666C41.1069 55.4651 40.6521 55.0103 40.6521 54.4512V47.7713C40.6521 47.2122 41.1069 46.7574 41.666 46.7574H47.4513V55.4651ZM91.0669 57.0008L88.0224 58.2238C86.381 58.8833 84.5134 58.594 83.1484 57.4685L80.2241 55.0577L90.7144 50.8435L92.1595 54.4407C92.5641 55.4478 92.0739 56.5963 91.0669 57.0008ZM76.9742 15.2663C77.7105 15.2663 78.3527 15.6734 78.6902 16.2737C78.7035 16.3091 78.7183 16.3442 78.7365 16.3785L78.7941 16.4874C78.8891 16.718 78.9423 16.9701 78.9423 17.2345C78.9423 17.6064 78.8368 17.9533 78.6568 18.2503C78.6511 18.2592 78.6449 18.2674 78.6394 18.2765L78.6019 18.3393C78.2474 18.86 77.6501 19.2027 76.9742 19.2027C75.8889 19.2027 75.006 18.3198 75.006 17.2345C75.006 16.1493 75.8889 15.2663 76.9742 15.2663ZM65.5229 61.0715C68.1867 61.0715 70.3539 63.2386 70.3539 65.9025C70.3539 68.5664 68.1867 70.7335 65.5229 70.7335H42.6203C39.9564 70.7335 37.7893 68.5664 37.7893 65.9025C37.7893 63.2386 39.9564 61.0715 42.6203 61.0715H65.5229ZM51.1491 59.2822V57.2544H56.994V59.2822H51.1491ZM65.5825 55.4651H49.2406V45.8674C49.2406 45.8658 49.2408 45.8644 49.2408 45.8627C49.2408 45.8611 49.2406 45.8596 49.2406 45.8581V39.1828C49.2406 37.8833 50.0933 36.7797 51.2684 36.401V49.2514C51.2684 50.3159 51.8969 51.283 52.8695 51.7153C55.4404 52.8579 58.1702 53.4373 60.9835 53.4373H65.5825V55.4651ZM67.4911 49.1283V51.648H60.9835C59.9171 51.648 58.8642 51.5552 57.829 51.3734V39.1828C57.829 38.6887 57.4285 38.2882 56.9344 38.2882C56.4403 38.2882 56.0398 38.6887 56.0398 39.1828V50.9638C55.2104 50.7289 54.3947 50.4351 53.5963 50.0803C53.2691 49.9349 53.0577 49.6095 53.0577 49.2514V36.2604H58.7087C59.6881 36.2604 60.5971 36.7469 61.1404 37.5617L66.3592 45.3898C67.0997 46.5006 67.4911 47.7934 67.4911 49.1283ZM65.3302 40.6209L62.629 36.5692C62.2276 35.967 61.7014 35.4777 61.098 35.1226L73.4816 18.6176C74.0337 20.0068 75.3907 20.992 76.9742 20.992C76.9904 20.992 77.0065 20.9909 77.0226 20.9908L65.3302 40.6209ZM90.8998 44.2588L77.2706 24.0709L80.1314 19.2681C80.1562 19.2297 80.1806 19.191 80.2041 19.1516L92.8672 43.0797C92.0546 43.1753 91.3476 43.6196 90.8998 44.2588ZM93.1968 46.8767C92.6377 46.8767 92.1829 46.4218 92.1829 45.8627C92.1829 45.3037 92.6377 44.8488 93.1968 44.8488C93.7559 44.8488 94.2107 45.3037 94.2107 45.8627C94.2107 46.4218 93.7559 46.8767 93.1968 46.8767Z" fill="url(#paint6_linear)"/>
<defs>
<linearGradient id="paint0_linear" x1="42.6201" y1="63.0994" x2="42.6201" y2="68.7057" gradientUnits="userSpaceOnUse">
<stop stop-color="#FFBB00"/>
<stop offset="1" stop-color="#FFA700"/>
</linearGradient>
<linearGradient id="paint1_linear" x1="50.2544" y1="63.0994" x2="50.2544" y2="68.7057" gradientUnits="userSpaceOnUse">
<stop stop-color="#FFBB00"/>
<stop offset="1" stop-color="#FFA700"/>
</linearGradient>
<linearGradient id="paint2_linear" x1="57.8886" y1="63.0994" x2="57.8886" y2="68.7057" gradientUnits="userSpaceOnUse">
<stop stop-color="#FFBB00"/>
<stop offset="1" stop-color="#FFA700"/>
</linearGradient>
<linearGradient id="paint3_linear" x1="65.5229" y1="63.0994" x2="65.5229" y2="68.7057" gradientUnits="userSpaceOnUse">
<stop stop-color="#FFBB00"/>
<stop offset="1" stop-color="#FFA700"/>
</linearGradient>
<linearGradient id="paint4_linear" x1="44.0515" y1="48.7852" x2="44.0515" y2="50.5744" gradientUnits="userSpaceOnUse">
<stop stop-color="#FFBB00"/>
<stop offset="1" stop-color="#FFA700"/>
</linearGradient>
<linearGradient id="paint5_linear" x1="44.0515" y1="51.6481" x2="44.0515" y2="53.4373" gradientUnits="userSpaceOnUse">
<stop stop-color="#FFBB00"/>
<stop offset="1" stop-color="#FFA700"/>
</linearGradient>
<linearGradient id="paint6_linear" x1="66" y1="13.4771" x2="66" y2="72.5228" gradientUnits="userSpaceOnUse">
<stop stop-color="#FFBB00"/>
<stop offset="1" stop-color="#FFA700"/>
</linearGradient>
</defs>
</svg>
