<svg width="126" height="83" viewBox="0 0 126 83" fill="none" xmlns="http://www.w3.org/2000/svg">
<path d="M47.7088 61.5933C46.3708 61.5933 45.2822 62.6818 45.2822 64.0199C45.2822 65.358 46.3708 66.4465 47.7088 66.4465C49.0469 66.4465 50.1355 65.358 50.1355 64.0199C50.1355 62.6818 49.0469 61.5933 47.7088 61.5933ZM47.7088 64.0982C47.6656 64.0982 47.6306 64.0629 47.6306 64.0199C47.6306 63.9768 47.6656 63.9416 47.7088 63.9416C47.7521 63.9416 47.7871 63.9768 47.7871 64.0199C47.7871 64.0629 47.7521 64.0982 47.7088 64.0982Z" fill="url(#paint0_linear)"/>
<path d="M60.2333 61.5933C58.8952 61.5933 57.8066 62.6818 57.8066 64.0199C57.8066 65.358 58.8952 66.4465 60.2333 66.4465C61.5713 66.4465 62.6599 65.358 62.6599 64.0199C62.6599 62.6818 61.5713 61.5933 60.2333 61.5933ZM60.2333 64.0982C60.19 64.0982 60.155 64.0629 60.155 64.0199C60.155 63.9768 60.19 63.9416 60.2333 63.9416C60.2765 63.9416 60.3115 63.9768 60.3115 64.0199C60.3115 64.0629 60.2765 64.0982 60.2333 64.0982Z" fill="url(#paint1_linear)"/>
<path d="M97.8065 61.5933C96.4684 61.5933 95.3799 62.6818 95.3799 64.0199C95.3799 65.358 96.4684 66.4465 97.8065 66.4465C99.1446 66.4465 100.233 65.358 100.233 64.0199C100.233 62.6818 99.1446 61.5933 97.8065 61.5933ZM97.8065 64.0982C97.7633 64.0982 97.7282 64.0629 97.7282 64.0199C97.7282 63.9768 97.7633 63.9416 97.8065 63.9416C97.8497 63.9416 97.8848 63.9768 97.8848 64.0199C97.8848 64.0629 97.8497 64.0982 97.8065 64.0982Z" fill="url(#paint2_linear)"/>
<path d="M108.656 68.1994L107.748 67.2909V64.0198C107.748 63.7657 107.665 63.5185 107.513 63.3153L99.998 53.2957C99.609 52.7771 98.873 52.6719 98.3542 53.0609C97.8355 53.4499 97.7303 54.1861 98.1194 54.7047L99.7156 56.833C99.1558 56.6841 98.5701 56.6003 97.9672 56.5875L79.821 52.051C79.5301 51.9783 79.2362 51.9245 78.9413 51.8875V50.2431C78.9413 49.5946 78.4156 49.0689 77.7671 49.0689C77.1187 49.0689 76.593 49.5946 76.593 50.2431V51.9677C76.2805 52.0289 75.9706 52.109 75.6658 52.2108L65.1644 55.7111V54.6387C65.9876 54.1385 66.6044 53.3214 66.8348 52.3227L69.934 38.8928H71.5049C72.1533 38.8928 72.6791 38.367 72.6791 37.7186C72.6791 37.0701 72.1533 36.5444 71.5049 36.5444H69.0236C69.0072 36.5441 68.9909 36.5441 68.9743 36.5444H56.4755C54.4469 36.5444 52.7965 38.1948 52.7965 40.2235V44.0591H48.9609C47.6228 44.0591 46.5342 45.1476 46.5342 46.4857V49.0689H45.1252V41.261C45.1252 40.2781 44.7425 39.3543 44.0477 38.6595L42.2766 36.8882C41.818 36.4297 41.0745 36.4297 40.6161 36.8882C40.1576 37.3468 40.1576 38.0903 40.6161 38.5488L42.3874 40.3201C42.6387 40.5714 42.7771 40.9056 42.7771 41.261V49.0689H32.6791C31.341 49.0689 30.2524 50.1574 30.2524 51.4955V56.5836H30.1742C29.5257 56.5836 29 57.1093 29 57.7577V59.5057C29 61.2434 30.1847 62.7202 31.8809 63.0971L40.3356 64.9759C40.8065 68.6261 43.9321 71.4564 47.7084 71.4564C50.3357 71.4564 52.6474 70.0855 53.9706 68.0228C55.2939 70.0855 57.6056 71.4564 60.2329 71.4564C64.3332 71.4564 67.6693 68.1203 67.6693 64.02C67.6693 63.4706 67.6076 62.9355 67.4939 62.4198L76.4084 59.4484C76.4694 59.428 76.5314 59.4121 76.593 59.394V62.8458H75.2622C73.2336 62.8458 71.5832 64.4962 71.5832 66.5248C71.5832 68.5535 73.2336 70.2039 75.2622 70.2039H80.272C80.9205 70.2039 81.4462 69.6782 81.4462 69.0297C81.4462 68.3813 80.9205 67.8556 80.272 67.8556H78.9413V64.02V59.2732C79.0451 59.2924 79.1486 59.3134 79.2514 59.3391L90.6012 62.1767C90.4503 62.7664 90.3697 63.3839 90.3697 64.02C90.3697 68.1203 93.7057 71.4564 97.8061 71.4564C101.847 71.4564 105.144 68.2155 105.238 64.1966L105.399 64.4113V67.7773C105.399 68.0887 105.523 68.3872 105.743 68.6075L106.995 69.86C107.225 70.0891 107.525 70.2039 107.826 70.2039C108.126 70.2039 108.427 70.0893 108.656 69.86C109.115 69.4012 109.115 68.6579 108.656 68.1994ZM55.1448 40.2233C55.1448 39.4896 55.7418 38.8926 56.4755 38.8926H67.524L64.5465 51.7945C64.4063 52.4018 63.8731 52.8261 63.2499 52.8261H61.407V42.7282C61.407 42.0798 60.8813 41.5541 60.2329 41.5541C59.5844 41.5541 59.0587 42.0798 59.0587 42.7282V52.8261H55.1448V40.2233ZM48.8826 46.4856C48.8826 46.4425 48.9177 46.4073 48.9609 46.4073H52.7965V52.8261H48.9609C48.9177 52.8261 48.8826 52.7908 48.8826 52.7478V50.2429V46.4856ZM32.6008 51.4953C32.6008 51.4523 32.6359 51.4171 32.6791 51.4171H46.5342V52.7478C46.5342 54.0859 47.6228 55.1744 48.9609 55.1744H53.9706H62.816V56.4938L62.5472 56.5834H32.6008V51.4953ZM54.817 58.9317C54.5028 59.266 54.2194 59.6292 53.9706 60.017C53.7219 59.6292 53.4385 59.266 53.1243 58.9317H54.817ZM31.3483 59.5055V58.9317H42.2925C41.3529 59.9313 40.6858 61.1893 40.4118 62.5872L32.3904 60.8046C31.7768 60.6683 31.3483 60.1341 31.3483 59.5055ZM47.7084 69.1079C44.9029 69.1079 42.6204 66.8254 42.6204 64.0198C42.6204 61.2142 44.9029 58.9317 47.7084 58.9317C50.5139 58.9317 52.7965 61.2142 52.7965 64.0198C52.7965 66.8254 50.5139 69.1079 47.7084 69.1079ZM60.2329 69.1079C57.4274 69.1079 55.1448 66.8254 55.1448 64.0198C55.1448 61.2142 57.4274 58.9317 60.2329 58.9317C63.0384 58.9317 65.3209 61.2142 65.3209 64.0198C65.3209 66.8254 63.0384 69.1079 60.2329 69.1079ZM76.593 67.8554H75.2622C74.5285 67.8554 73.9315 67.2585 73.9315 66.5247C73.9315 65.7909 74.5285 65.194 75.2622 65.194H76.593V67.8554ZM79.821 57.0607C78.4466 56.7173 77.0095 56.7724 75.6658 57.2204L66.6291 60.2327C66.2003 59.5113 65.6533 58.8685 65.0146 58.3307C65.0351 58.2942 65.054 58.2567 65.0706 58.2177L76.4084 54.4384C77.3281 54.1317 78.3112 54.0942 79.2514 54.3292L93.5744 57.9099C92.7738 58.4661 92.0879 59.1753 91.5581 59.9949L79.821 57.0607ZM97.8063 69.1079C95.0008 69.1079 92.7182 66.8254 92.7182 64.0198C92.7182 63.2525 92.8899 62.5248 93.1954 61.8717C93.2021 61.8582 93.2079 61.8441 93.2142 61.8302C94.034 60.1176 95.7842 58.9317 97.8063 58.9317C100.612 58.9317 102.894 61.2142 102.894 64.0198C102.894 66.8254 100.612 69.1079 97.8063 69.1079Z" fill="url(#paint3_linear)"/>
<defs>
<linearGradient id="paint0_linear" x1="47.7088" y1="61.5933" x2="47.7088" y2="66.4465" gradientUnits="userSpaceOnUse">
<stop stop-color="#FFBB00"/>
<stop offset="1" stop-color="#FFA700"/>
</linearGradient>
<linearGradient id="paint1_linear" x1="60.2333" y1="61.5933" x2="60.2333" y2="66.4465" gradientUnits="userSpaceOnUse">
<stop stop-color="#FFBB00"/>
<stop offset="1" stop-color="#FFA700"/>
</linearGradient>
<linearGradient id="paint2_linear" x1="97.8065" y1="61.5933" x2="97.8065" y2="66.4465" gradientUnits="userSpaceOnUse">
<stop stop-color="#FFBB00"/>
<stop offset="1" stop-color="#FFA700"/>
</linearGradient>
<linearGradient id="paint3_linear" x1="69" y1="36.5442" x2="69" y2="71.4564" gradientUnits="userSpaceOnUse">
<stop stop-color="#FFBB00"/>
<stop offset="1" stop-color="#FFA700"/>
</linearGradient>
</defs>
</svg>
