<svg width="126" height="83" viewBox="0 0 126 83" fill="none" xmlns="http://www.w3.org/2000/svg">
<path d="M92.0108 57.2133H89.5938C87.907 54.261 84.8982 52.3769 81.5126 52.149L80.7739 49.9329C81.3964 49.3741 81.771 48.5671 81.771 47.7066V46.3639C81.771 45.1114 80.9802 43.9825 79.8034 43.5546L72.6801 40.9644C71.7645 40.6314 70.7415 40.7664 69.9436 41.3253C69.8361 41.4006 69.735 41.4828 69.6396 41.5703L68.9373 40.868L70.298 39.5073C70.6705 39.1347 70.6705 38.5307 70.298 38.1582C69.9254 37.7856 69.3213 37.7856 68.9489 38.1582L64.8784 42.2287C64.5058 42.6012 64.5058 43.2053 64.8784 43.5778C65.0646 43.764 65.3089 43.8572 65.553 43.8572C65.7971 43.8572 66.0413 43.7641 66.2275 43.5778L67.5882 42.2171L68.7035 43.3324C68.6817 43.4775 68.6694 43.6247 68.6694 43.7737V53.0792C68.6694 53.2366 68.7076 53.3851 68.775 53.516L68.406 53.6863C67.7338 53.9965 66.9874 54.1606 66.2471 54.1606H62.4364V47.9913C62.4364 46.343 61.0954 45.002 59.4472 45.002H54.8154L54.2955 39.8025V30.6281H70.6409C72.2892 30.6281 73.6301 29.2872 73.6301 27.6389C73.6301 25.9906 72.2892 24.6497 70.6409 24.6497H52.3239C50.6756 24.6497 49.3346 25.9906 49.3346 27.6389L49.335 28.8299C49.3353 29.2626 49.3355 29.5656 49.335 29.6423C49.3326 29.7132 49.3382 29.7852 49.3523 29.8572C49.4398 30.305 49.8323 30.6281 50.2887 30.6281H52.3875V39.0947L40.4742 41.8978C37.2694 42.6519 34.7168 45.0869 33.8122 48.2524L31.208 57.3673C30.499 57.6664 30 58.3684 30 59.1849V61.5325C30 62.3498 30.5141 63.0916 31.2794 63.3786L38.76 66.1838C38.828 66.2093 38.8971 66.2256 38.9663 66.235C40.5189 69.8285 44.0966 72.3502 48.2534 72.3502C53.1549 72.3502 57.2517 68.8446 58.1716 64.2093H66.6341V64.2729C66.6341 65.9212 67.975 67.2622 69.6233 67.2622H72.0402C73.8418 70.4151 77.1513 72.3502 80.817 72.3502C85.0018 72.3502 88.7582 69.758 90.2549 65.872L92.1953 65.5487C93.7681 65.2865 95 63.8322 95 62.2377V60.2025C95 58.5542 93.659 57.2133 92.0108 57.2133ZM51.2427 27.6389C51.2427 27.0427 51.7277 26.5577 52.3239 26.5577H70.6409C71.2371 26.5577 71.7221 27.0427 71.7221 27.6389C71.7221 28.2351 71.2371 28.7201 70.6409 28.7201H51.243L51.2427 27.6389ZM87.3066 57.2133H74.329C75.8661 55.2236 78.2394 54.0341 80.8144 54.0332C80.8152 54.0332 80.816 54.0335 80.8169 54.0335C80.8178 54.0335 80.8186 54.0332 80.8194 54.0332C83.4051 54.034 85.7719 55.2217 87.3066 57.2133ZM71.0383 42.8879C71.2244 42.7576 71.4378 42.6909 71.655 42.6909C71.7796 42.6909 71.9055 42.7129 72.028 42.7574L79.1513 45.3476C79.5771 45.5024 79.863 45.9108 79.863 46.3639V47.7066C79.863 48.1269 79.6165 48.5122 79.2349 48.6883L70.5773 52.6841V43.7737C70.5773 43.416 70.7453 43.0931 71.0383 42.8879ZM59.4472 46.9099C60.0434 46.9099 60.5284 47.395 60.5284 47.9911V54.0987C60.3773 54.0458 60.2384 53.9603 60.1218 53.8438C60.1012 53.8232 60.0797 53.8036 60.0574 53.7849L56.5454 50.8632C55.724 50.0283 55.2082 48.9287 55.0915 47.7627L55.0063 46.9098H59.4472V46.9099ZM31.9492 61.592C31.9246 61.5829 31.908 61.559 31.908 61.5325V59.1849C31.908 59.15 31.9361 59.1219 31.9709 59.1214C31.9712 59.1214 31.9718 59.1215 31.9721 59.1215C31.9732 59.1215 31.9742 59.1213 31.9752 59.1213H38.6344C38.3154 60.1035 38.1409 61.1504 38.1409 62.2377C38.1409 62.8288 38.1948 63.4072 38.2925 63.9708L31.9492 61.592ZM48.2534 70.4422C43.7295 70.4422 40.0489 66.7616 40.0489 62.2377C40.0489 57.7138 43.7295 54.0332 48.2534 54.0332C51.3529 54.0332 54.056 55.7613 55.4513 58.3041C55.4813 58.5121 55.5772 58.6986 55.7186 58.8405C56.1919 59.8765 56.4579 61.0263 56.4579 62.2377C56.4579 66.7616 52.7773 70.4422 48.2534 70.4422ZM58.3643 62.3013C58.3644 62.2801 58.3659 62.2591 58.3659 62.2377C58.3659 61.1504 58.1914 60.1035 57.8724 59.1213H64.5352C65.0621 59.1213 65.4892 58.6941 65.4892 58.1673C65.4892 57.6404 65.0621 57.2133 64.5352 57.2133H57.0237C55.277 54.1762 52.0013 52.1252 48.2534 52.1252C44.478 52.1252 41.1813 54.2063 39.4445 57.2803C39.3361 57.2376 39.2184 57.2133 39.0949 57.2133H33.2364L35.6469 48.7766C36.3616 46.2751 38.3788 44.351 40.9111 43.7551L52.5004 41.0281L53.1928 47.9526C53.3545 49.5696 54.0765 51.093 55.2255 52.2421C55.2461 52.2627 55.2676 52.2823 55.29 52.3009L58.8064 55.2264C59.367 55.7698 60.1035 56.0684 60.8862 56.0684H66.247C67.2614 56.0684 68.2844 55.8437 69.2054 55.4187L79.0731 50.8644L79.5212 52.2086C76.3916 52.6082 73.627 54.4413 72.0404 57.2133H69.6233C67.975 57.2133 66.6341 58.5542 66.6341 60.2025V62.3013H58.3643ZM80.817 70.4422C78.2305 70.4422 75.8627 69.2544 74.3275 67.2622H79.7994C80.9652 67.2622 82.8492 67.1062 83.999 66.9147L87.9729 66.2523C86.5391 68.804 83.8135 70.4422 80.817 70.4422ZM93.092 62.2377C93.092 62.8914 92.5264 63.5591 91.8817 63.6665L83.6854 65.0325C82.6394 65.2069 80.8599 65.3542 79.7994 65.3542H69.6233C69.0271 65.3542 68.5421 64.8691 68.5421 64.2729V60.2025C68.5421 59.6063 69.0271 59.1213 69.6233 59.1213H89.0197C89.0213 59.1213 89.0228 59.1215 89.0243 59.1215C89.0261 59.1215 89.028 59.1213 89.0298 59.1213H92.0108C92.607 59.1213 93.092 59.6063 93.092 60.2025V62.2377Z" fill="url(#paint0_linear)"/>
<path d="M51.9567 60.2948C51.4465 60.4264 51.1396 60.9466 51.2711 61.4568C51.3365 61.7101 51.3695 61.9729 51.3695 62.2377C51.3695 63.9561 49.9715 65.3542 48.2531 65.3542C46.5347 65.3542 45.1367 63.9561 45.1367 62.2377C45.1367 60.5194 46.5347 59.1213 48.2531 59.1213C48.5178 59.1213 48.7802 59.1544 49.0332 59.2195C49.5432 59.3509 50.0636 59.0438 50.195 58.5335C50.3264 58.0233 50.0192 57.5031 49.509 57.3718C49.1006 57.2666 48.6781 57.2133 48.253 57.2133C45.4825 57.2133 43.2285 59.4673 43.2285 62.2377C43.2285 65.0082 45.4825 67.2622 48.253 67.2622C51.0234 67.2622 53.2774 65.0082 53.2774 62.2377C53.2774 61.8124 53.224 61.3893 53.1186 60.9805C52.9872 60.4703 52.4665 60.1633 51.9567 60.2948Z" fill="url(#paint1_linear)"/>
<path d="M80.8173 61.2837C80.5667 61.2837 80.3199 61.3855 80.1431 61.5635C79.965 61.7403 79.8633 61.9871 79.8633 62.2377C79.8633 62.4896 79.965 62.7351 80.1431 62.9119C80.3199 63.0899 80.5667 63.1917 80.8173 63.1917C81.0692 63.1917 81.3146 63.0899 81.4915 62.9119C81.6695 62.7351 81.7713 62.4896 81.7713 62.2377C81.7713 61.9871 81.6695 61.7403 81.4915 61.5635C81.3146 61.3855 81.0679 61.2837 80.8173 61.2837Z" fill="url(#paint2_linear)"/>
<defs>
<linearGradient id="paint0_linear" x1="62.5" y1="24.6497" x2="62.5" y2="72.3502" gradientUnits="userSpaceOnUse">
<stop stop-color="#FFBB00"/>
<stop offset="1" stop-color="#FFA700"/>
</linearGradient>
<linearGradient id="paint1_linear" x1="48.253" y1="57.2133" x2="48.253" y2="67.2622" gradientUnits="userSpaceOnUse">
<stop stop-color="#FFBB00"/>
<stop offset="1" stop-color="#FFA700"/>
</linearGradient>
<linearGradient id="paint2_linear" x1="80.8173" y1="61.2837" x2="80.8173" y2="63.1917" gradientUnits="userSpaceOnUse">
<stop stop-color="#FFBB00"/>
<stop offset="1" stop-color="#FFA700"/>
</linearGradient>
</defs>
</svg>
