<svg width="126" height="83" viewBox="0 0 126 83" fill="none" xmlns="http://www.w3.org/2000/svg">
<path d="M53.1879 55.766C52.9666 55.2609 52.3775 55.0307 51.8726 55.2521C51.3674 55.4734 51.1374 56.0623 51.3586 56.5674C51.5983 57.1145 51.7199 57.6981 51.7199 58.3016C51.7199 60.6876 49.7786 62.6288 47.3927 62.6288C45.0067 62.6288 43.0655 60.6874 43.0655 58.3015C43.0655 55.9156 45.0067 53.9743 47.3927 53.9743C47.9949 53.9743 48.5773 54.0954 49.1236 54.3341C49.6288 54.5548 50.2176 54.3244 50.4385 53.819C50.6594 53.3137 50.4286 52.7249 49.9233 52.504C49.1233 52.1545 48.272 51.9772 47.3927 51.9772C43.9055 51.9772 41.0684 54.8143 41.0684 58.3015C41.0684 61.7887 43.9055 64.6258 47.3927 64.6258C50.8799 64.6258 53.717 61.7887 53.717 58.3015C53.717 57.4204 53.539 56.5673 53.1879 55.766Z" fill="url(#paint0_linear)"/>
<path d="M80.8817 55.766C80.6605 55.2609 80.0713 55.0307 79.5664 55.2521C79.0613 55.4734 78.8312 56.0623 79.0525 56.5674C79.2921 57.1145 79.4137 57.6981 79.4137 58.3016C79.4137 60.6876 77.4725 62.6288 75.0865 62.6288C72.7006 62.6288 70.7594 60.6874 70.7594 58.3015C70.7594 55.9156 72.7006 53.9743 75.0865 53.9743C75.6887 53.9743 76.2711 54.0954 76.8174 54.3341C77.3228 54.5548 77.9114 54.3244 78.1323 53.819C78.3532 53.3137 78.1225 52.7249 77.6172 52.504C76.8171 52.1545 75.9658 51.9772 75.0865 51.9772C71.5994 51.9772 68.7622 54.8143 68.7622 58.3015C68.7622 61.7887 71.5994 64.6258 75.0865 64.6258C78.5737 64.6258 81.4109 61.7887 81.4109 58.3015C81.4109 57.4204 81.2328 56.5673 80.8817 55.766Z" fill="url(#paint1_linear)"/>
<path d="M98.5198 65.8242H97.879C93.0715 60.6504 93.1263 50.9568 93.1275 50.8582C93.1323 50.4778 92.9204 50.1276 92.5812 49.9552C92.2419 49.7828 91.8342 49.8183 91.5299 50.0467L89.7302 51.3963L85.5436 46.4018C84.5417 45.2066 83.0726 44.5212 81.5131 44.5212H80.3457V43.3895C80.3457 42.838 79.8986 42.3909 79.3471 42.3909C78.7956 42.3909 78.3485 42.838 78.3485 43.3895V44.5212H71.891C70.1658 44.5212 68.7622 45.9248 68.7622 47.6501V49.7804C68.7622 49.7929 68.7636 49.8051 68.764 49.8175C67.8961 50.4659 67.1328 51.2457 66.4987 52.1249V37.9972H68.6956C69.2471 37.9972 69.6942 37.5501 69.6942 36.9986C69.6942 36.4471 69.2471 36 68.6956 36H52.7184C50.4058 36 48.5243 37.8815 48.5243 40.194V43.456H35.676C33.9507 43.456 32.5471 44.8596 32.5471 46.5849V52.2362C31.9127 52.5886 31.4819 53.2651 31.4819 54.041V59.3667C31.4819 61.092 32.8855 62.4956 34.6108 62.4956H37.676C39.3035 66.2516 43.0455 68.8865 47.3926 68.8865C51.7397 68.8865 55.4816 66.2516 57.1092 62.4956H65.3699C66.9973 66.2516 70.7394 68.8865 75.0865 68.8865C79.4336 68.8865 83.1755 66.2516 84.8031 62.4956H86.8697V62.5622C86.8697 65.462 89.229 67.8213 92.1289 67.8213H98.5198C99.0713 67.8213 99.5184 67.3742 99.5184 66.8228C99.5184 66.2713 99.0713 65.8242 98.5198 65.8242ZM64.5016 43.456H54.7821V41.2592C54.7821 41.2224 54.8119 41.1926 54.8487 41.1926H64.5016V43.456ZM34.6108 60.4984C33.9868 60.4984 33.4791 59.9908 33.4791 59.3667V54.041C33.4791 54.0042 33.5089 53.9744 33.5457 53.9744H37.7364C37.1416 55.2965 36.8077 56.7603 36.8077 58.3016C36.8077 59.0548 36.8881 59.7893 37.0384 60.4984H34.6108ZM47.3926 66.8893C42.6573 66.8893 38.8048 63.0368 38.8048 58.3016C38.8048 53.5663 42.6573 49.7138 47.3926 49.7138C52.1279 49.7138 55.9804 53.5663 55.9804 58.3016C55.9804 63.0368 52.1279 66.8893 47.3926 66.8893ZM47.3926 47.7166C43.9242 47.7166 40.8403 49.3936 38.9086 51.9791C38.8962 51.9787 38.8839 51.9772 38.8714 51.9772H34.5442V46.5849C34.5442 45.9609 35.0519 45.4532 35.676 45.4532H49.5229C50.0744 45.4532 50.5215 45.0061 50.5215 44.4546V40.194C50.5215 38.9827 51.507 37.9972 52.7184 37.9972H64.5016V39.1954H54.8487C53.7107 39.1954 52.7849 40.1212 52.7849 41.2592V44.4546C52.7849 45.0061 53.232 45.4532 53.7835 45.4532H64.5016V51.9772H59.1092C58.5578 51.9772 58.1107 52.4243 58.1107 52.9758C58.1107 53.5273 58.5578 53.9744 59.1092 53.9744H64.5016V60.4984H57.7468C57.8971 59.7893 57.9775 59.0548 57.9775 58.3016C57.9775 52.4651 53.2291 47.7166 47.3926 47.7166ZM75.0865 66.8893C70.3512 66.8893 66.4987 63.0368 66.4987 58.3016C66.4987 53.5663 70.3512 49.7138 75.0865 49.7138C79.8217 49.7138 83.6743 53.5663 83.6743 58.3016C83.6743 63.0368 79.8217 66.8893 75.0865 66.8893ZM85.4407 60.4984C85.591 59.7893 85.6714 59.0548 85.6714 58.3016C85.6714 52.4651 80.923 47.7166 75.0865 47.7166C73.5452 47.7166 72.0814 48.0506 70.7593 48.6453V47.6501C70.7593 47.026 71.267 46.5184 71.891 46.5184H81.5131C82.4804 46.5184 83.3916 46.9435 84.013 47.6848L88.2002 52.6801C87.3554 53.6343 86.8697 54.8794 86.8697 56.1713V60.4984H85.4407ZM92.1289 65.8242C90.3302 65.8242 88.8669 64.3608 88.8669 62.5622V56.1713C88.8669 55.1501 89.3547 54.1744 90.1717 53.5617L91.2026 52.7885C91.413 55.7761 92.2225 61.556 95.3036 65.8242H92.1289Z" fill="url(#paint2_linear)"/>
<defs>
<linearGradient id="paint0_linear" x1="47.3927" y1="51.9772" x2="47.3927" y2="64.6258" gradientUnits="userSpaceOnUse">
<stop stop-color="#FFBB00"/>
<stop offset="1" stop-color="#FFA700"/>
</linearGradient>
<linearGradient id="paint1_linear" x1="75.0865" y1="51.9772" x2="75.0865" y2="64.6258" gradientUnits="userSpaceOnUse">
<stop stop-color="#FFBB00"/>
<stop offset="1" stop-color="#FFA700"/>
</linearGradient>
<linearGradient id="paint2_linear" x1="65.5001" y1="36" x2="65.5001" y2="68.8865" gradientUnits="userSpaceOnUse">
<stop stop-color="#FFBB00"/>
<stop offset="1" stop-color="#FFA700"/>
</linearGradient>
</defs>
</svg>
