<svg width="126" height="83" viewBox="0 0 126 83" fill="none" xmlns="http://www.w3.org/2000/svg">
<path d="M35.8386 62.8521C36.0523 62.64 36.1744 62.3438 36.1744 62.0431C36.1744 61.7424 36.0523 61.4463 35.8386 61.2341C35.6264 61.0204 35.3303 60.8983 35.0296 60.8983C34.7273 60.8983 34.4328 61.0204 34.2206 61.2341C34.0069 61.4463 33.8848 61.7424 33.8848 62.0431C33.8848 62.3438 34.0069 62.64 34.2206 62.8521C34.4328 63.0658 34.7289 63.1879 35.0296 63.1879C35.3303 63.1879 35.6264 63.0658 35.8386 62.8521Z" fill="url(#paint0_linear)"/>
<path d="M43.9896 50.2439C43.7759 50.4561 43.6538 50.7522 43.6538 51.0529C43.6538 51.3536 43.7759 51.6497 43.9896 51.8619C44.2018 52.0756 44.4979 52.1977 44.7986 52.1977C45.0993 52.1977 45.3955 52.0756 45.6076 51.8619C45.8213 51.6497 45.9434 51.3536 45.9434 51.0529C45.9434 50.7522 45.8213 50.4561 45.6076 50.2439C45.3955 50.0302 45.0993 49.9081 44.7986 49.9081C44.4979 49.9081 44.2018 50.0302 43.9896 50.2439Z" fill="url(#paint1_linear)"/>
<path d="M74.1058 60.8983C73.805 60.8983 73.5089 61.0204 73.2968 61.2341C73.0831 61.4463 72.9609 61.7424 72.9609 62.0431C72.9609 62.3438 73.0831 62.64 73.2968 62.8521C73.5089 63.0658 73.805 63.1879 74.1058 63.1879C74.4065 63.1879 74.7026 63.0658 74.9148 62.8521C75.1284 62.64 75.2506 62.3438 75.2506 62.0431C75.2506 61.7424 75.1284 61.4463 74.9148 61.2341C74.7026 61.0204 74.4065 60.8983 74.1058 60.8983Z" fill="url(#paint2_linear)"/>
<path d="M44.7986 63.1879H64.3368C64.969 63.1879 65.4816 62.6754 65.4816 62.0431C65.4816 61.4109 64.969 60.8983 64.3368 60.8983H44.7986C44.1664 60.8983 43.6538 61.4109 43.6538 62.0431C43.6538 62.6754 44.1664 63.1879 44.7986 63.1879Z" fill="url(#paint3_linear)"/>
<path d="M105.855 64.5617H103.76L91.6963 56.5194C90.8406 55.9488 89.7797 55.773 88.7857 56.0371C87.7919 56.301 86.958 56.9799 86.4982 57.8998L85.6756 59.5449L82.4573 48.2264C82.1069 46.7899 81.0158 45.6405 79.6127 45.2085C79.4982 45.1342 79.3692 45.0783 79.2279 45.0484L71.5436 43.4183C71.5385 43.4002 71.5344 43.382 71.5285 43.364L67.8725 32.3962C67.8722 32.3953 67.8719 32.3944 67.8716 32.3933L67.1461 30.2172H68C68.6322 30.2172 69.1448 29.7047 69.1448 29.0724C69.1448 28.4402 68.6322 27.9276 68 27.9276H65.5397C65.5374 27.9276 65.5351 27.9276 65.5328 27.9276H47.2407C44.5895 27.9276 42.4325 30.0846 42.4325 32.7358V37.2433L39.898 36.7057C38.8121 36.4757 37.6962 37.0446 37.245 38.0594L33.5252 46.4287C33.1987 47.1634 33.2653 48.0046 33.7034 48.6788C34.1414 49.353 34.8831 49.7554 35.6872 49.7554H37.9181L31.1924 57.3956C29.8542 58.5024 29 60.1749 29 62.0431C29 65.3676 31.7048 68.0724 35.0294 68.0724H74.1057C77.4302 68.0724 80.135 65.3676 80.135 62.0431C80.135 61.7152 80.1077 61.3936 80.0572 61.0796L82.869 66.2531C82.8739 66.2621 82.8801 66.2699 82.8853 66.2787C82.891 66.2883 82.8951 66.2987 82.9011 66.3082C82.9101 66.3228 82.921 66.3358 82.9307 66.3499C82.9443 66.3697 82.9577 66.3895 82.9722 66.4085C82.9882 66.4291 83.0053 66.4482 83.0226 66.4674C83.0392 66.486 83.0557 66.5049 83.0734 66.5223C83.0909 66.5394 83.1096 66.5552 83.128 66.571C83.1473 66.5877 83.166 66.6046 83.1862 66.6199C83.206 66.6348 83.2271 66.6478 83.2477 66.6614C83.268 66.6747 83.2878 66.6889 83.3089 66.7008C83.3327 66.7144 83.3578 66.7255 83.3825 66.7374C83.4019 66.7467 83.4206 66.757 83.4406 66.7652C83.4698 66.7773 83.5002 66.7863 83.5302 66.7959C83.547 66.8012 83.5632 66.8079 83.5802 66.8124C83.6128 66.8211 83.6466 66.8267 83.6801 66.8325C83.6957 66.8353 83.7108 66.8395 83.7264 66.8415C83.7497 66.8446 83.7736 66.8446 83.7972 66.8462C83.8233 66.8481 83.8494 66.8514 83.8758 66.8514C83.877 66.8514 83.8783 66.8513 83.8795 66.8513H103.395C103.401 66.8513 103.406 66.8514 103.412 66.8514C103.417 66.8514 103.423 66.8514 103.429 66.8513H105.855C106.487 66.8513 107 66.3387 107 65.7065C107 65.0742 106.487 64.5617 105.855 64.5617ZM83.8325 63.2312L78.4978 53.4159C79.5527 53.3864 80.5111 52.9668 81.2337 52.2954L84.1581 62.5799L83.8325 63.2312ZM80.2106 48.6965L80.2329 48.7745C80.2675 48.918 80.2878 49.0671 80.2878 49.2211C80.2878 50.2733 79.432 51.1292 78.3798 51.1292C77.7195 51.1292 77.1367 50.7918 76.794 50.2806L76.6397 49.9966C76.6374 49.9923 76.6345 49.9883 76.632 49.9841C76.5295 49.7502 76.4718 49.4924 76.4718 49.221C76.4718 48.1688 77.3276 47.313 78.3798 47.313C79.232 47.313 79.9554 47.8748 80.1994 48.6474C80.2031 48.6639 80.2059 48.6802 80.2106 48.6965ZM68.9496 42.8682L50.8124 39.0209C50.8217 38.9622 50.8278 38.9027 50.8278 38.8415V33.957C50.8278 33.9148 50.862 33.8806 50.9041 33.8806H65.9537L68.9496 42.8682ZM44.7221 37.6204V32.7358C44.7221 31.3471 45.852 30.2172 47.2407 30.2172H64.7325L65.1905 31.591H50.9041C49.5995 31.591 48.5382 32.6523 48.5382 33.957V38.5385L44.7166 37.7278C44.72 37.6924 44.7221 37.6567 44.7221 37.6204ZM39.9139 47.4658H35.6872C35.6727 47.4658 35.6459 47.4658 35.6233 47.431C35.6007 47.3962 35.6115 47.3716 35.6175 47.3583L39.3372 38.9891C39.3517 38.9564 39.3876 38.9381 39.4228 38.9453L75.1639 46.5267C74.5517 47.2563 74.182 48.1962 74.182 49.2208C74.182 49.6859 74.2591 50.133 74.3994 50.5514L49.4977 46.4012L47.4155 45.6215C46.6236 45.2386 45.7357 45.0235 44.7984 45.0235C42.9141 45.0235 41.2295 45.8929 40.123 47.2512C40.1219 47.2522 40.1209 47.2533 40.1198 47.2544L39.9328 47.4668C39.9266 47.4667 39.9203 47.4658 39.9139 47.4658ZM35.4453 56.0297L38.8692 52.1403C39.3829 54.9474 41.8453 57.0822 44.7984 57.0822C46.3598 57.0822 47.7843 56.4855 48.8561 55.5085L50.2427 56.8951C51.1508 57.8033 52.3583 58.3033 53.6425 58.3033H69.3814C68.5654 59.332 68.0762 60.6311 68.0762 62.0431C68.0762 63.455 68.5654 64.7541 69.3814 65.7828H39.7535C40.5695 64.7541 41.0587 63.455 41.0587 62.0431C41.0587 58.8585 38.5764 56.2442 35.4453 56.0297ZM45.6954 47.4226L46.4969 47.7227C47.7072 48.3425 48.5382 49.6021 48.5382 51.0529C48.5382 53.1149 46.8605 54.7926 44.7984 54.7926C42.7364 54.7926 41.0587 53.1149 41.0587 51.0529C41.0587 48.9908 42.7364 47.3131 44.7984 47.3131C45.1075 47.3131 45.4078 47.3514 45.6954 47.4226ZM53.6427 56.0137C52.97 56.0137 52.3374 55.7518 51.8618 55.276L50.2378 53.652C50.6158 52.8647 50.8278 51.9831 50.8278 51.0529C50.8278 50.4214 50.7298 49.8125 50.5489 49.2401L68.6376 56.0137H53.6427ZM31.2896 62.0431C31.2896 61.1057 31.637 60.2485 32.2088 59.5915C32.3284 59.5283 32.4393 59.4442 32.534 59.3366L32.7788 59.0585C33.4056 58.5848 34.1851 58.3033 35.0294 58.3033C37.0914 58.3033 38.7691 59.981 38.7691 62.0431C38.7691 64.1051 37.0914 65.7828 35.0294 65.7828C32.9673 65.7828 31.2896 64.1051 31.2896 62.0431ZM74.1057 65.7828C72.0436 65.7828 70.3659 64.1051 70.3659 62.0431C70.3659 59.981 72.0436 58.3033 74.1057 58.3033C74.4699 58.3033 74.8217 58.3566 75.1548 58.4542L75.6648 58.6451C76.9503 59.2374 77.8454 60.5373 77.8454 62.0431C77.8454 64.1051 76.1677 65.7828 74.1057 65.7828ZM76.6157 56.5632C76.6093 56.56 76.6024 56.5573 76.5959 56.5542C76.3634 56.4483 76.1238 56.3556 75.8768 56.2796L60.6682 50.5844L75.716 53.0925L78.1548 57.5795C77.6998 57.1663 77.1808 56.823 76.6157 56.5632ZM85.7271 64.5617L88.5461 58.9238C88.7147 58.5863 89.0086 58.347 89.3734 58.2501C89.738 58.1531 90.112 58.2151 90.4261 58.4245L99.6318 64.5617H85.7271Z" fill="url(#paint4_linear)"/>
<defs>
<linearGradient id="paint0_linear" x1="35.0296" y1="60.8983" x2="35.0296" y2="63.1879" gradientUnits="userSpaceOnUse">
<stop stop-color="#FFBB00"/>
<stop offset="1" stop-color="#FFA700"/>
</linearGradient>
<linearGradient id="paint1_linear" x1="44.7986" y1="49.9081" x2="44.7986" y2="52.1977" gradientUnits="userSpaceOnUse">
<stop stop-color="#FFBB00"/>
<stop offset="1" stop-color="#FFA700"/>
</linearGradient>
<linearGradient id="paint2_linear" x1="74.1058" y1="60.8983" x2="74.1058" y2="63.1879" gradientUnits="userSpaceOnUse">
<stop stop-color="#FFBB00"/>
<stop offset="1" stop-color="#FFA700"/>
</linearGradient>
<linearGradient id="paint3_linear" x1="54.5677" y1="60.8983" x2="54.5677" y2="63.1879" gradientUnits="userSpaceOnUse">
<stop stop-color="#FFBB00"/>
<stop offset="1" stop-color="#FFA700"/>
</linearGradient>
<linearGradient id="paint4_linear" x1="68" y1="27.9276" x2="68" y2="68.0724" gradientUnits="userSpaceOnUse">
<stop stop-color="#FFBB00"/>
<stop offset="1" stop-color="#FFA700"/>
</linearGradient>
</defs>
</svg>
