<svg width="126" height="83" viewBox="0 0 126 83" fill="none" xmlns="http://www.w3.org/2000/svg">
<path d="M55.8078 56.8863C55.3586 57.0824 55.1534 57.6056 55.3495 58.055C55.5613 58.5401 55.6687 59.0571 55.6687 59.5919C55.6687 61.7126 53.9432 63.4381 51.8225 63.4381C49.7018 63.4381 47.9763 61.7125 47.9763 59.5918C47.9763 57.4711 49.7018 55.7456 51.8225 55.7456C52.3582 55.7456 52.8763 55.8534 53.3623 56.066C53.8111 56.2624 54.3347 56.0577 54.5311 55.6086C54.7276 55.1595 54.5229 54.6361 54.0737 54.4397C53.3621 54.1283 52.6046 53.9705 51.8225 53.9705C48.723 53.9705 46.2012 56.4922 46.2012 59.5918C46.2012 62.6913 48.723 65.2131 51.8225 65.2131C54.922 65.2131 57.4438 62.6913 57.4438 59.5918C57.4438 58.8111 57.2865 58.0551 56.9764 57.3446C56.7803 56.8953 56.2572 56.6902 55.8078 56.8863Z" fill="#FFAE00"/>
<path d="M51.8226 57.7574C50.8111 57.7574 49.9883 58.5803 49.9883 59.5918C49.9883 60.6033 50.8111 61.4261 51.8226 61.4261C52.8341 61.4261 53.6569 60.6033 53.6569 59.5918C53.6569 58.5803 52.8341 57.7574 51.8226 57.7574ZM51.8226 59.6509C51.7899 59.6509 51.7634 59.6244 51.7634 59.5918C51.7634 59.5591 51.7899 59.5326 51.8226 59.5326C51.8553 59.5326 51.8818 59.5591 51.8818 59.5918C51.8818 59.6244 51.8553 59.6509 51.8226 59.6509Z" fill="#FFAE00"/>
<path d="M76.636 56.8863C76.1867 57.0824 75.9815 57.6056 76.1776 58.055C76.3895 58.5401 76.4968 59.0571 76.4968 59.5919C76.4968 61.7126 74.7713 63.4381 72.6506 63.4381C70.5299 63.4381 68.8045 61.7125 68.8045 59.5918C68.8045 57.4711 70.5299 55.7456 72.6506 55.7456C73.1864 55.7456 73.7045 55.8534 74.1904 56.066C74.6392 56.2624 75.1628 56.0577 75.3593 55.6086C75.5557 55.1595 75.351 54.6361 74.9019 54.4397C74.1903 54.1283 73.4328 53.9705 72.6506 53.9705C69.5511 53.9705 67.0293 56.4922 67.0293 59.5918C67.0293 62.6913 69.5511 65.2131 72.6506 65.2131C75.7502 65.2131 78.272 62.6913 78.272 59.5918C78.272 58.8111 78.1147 58.0551 77.8045 57.3446C77.6084 56.8953 77.0853 56.6902 76.636 56.8863Z" fill="#FFAE00"/>
<path d="M72.6507 57.7574C71.6392 57.7574 70.8164 58.5803 70.8164 59.5918C70.8164 60.6033 71.6392 61.4261 72.6507 61.4261C73.6622 61.4261 74.4851 60.6033 74.4851 59.5918C74.4851 58.5803 73.6622 57.7574 72.6507 57.7574ZM72.6507 59.6509C72.6181 59.6509 72.5916 59.6244 72.5916 59.5918C72.5916 59.5591 72.6181 59.5326 72.6507 59.5326C72.6834 59.5326 72.7099 59.5591 72.7099 59.5918C72.7099 59.6244 72.6834 59.6509 72.6507 59.6509Z" fill="#FFAE00"/>
<path d="M89.6926 21.7809H34.7811C33.2476 21.7809 32 23.0285 32 24.562V52.0177C32 53.5512 33.2476 54.7988 34.7811 54.7988H39.5768C39.5605 55.0453 39.6456 55.2972 39.834 55.4855C40.1806 55.8322 40.7426 55.8322 41.0892 55.4855L41.7759 54.7988H43.7311C42.8958 56.2035 42.4142 57.8421 42.4142 59.5917C42.4142 64.7794 46.6349 69 51.8226 69C56.7109 69 60.7389 65.2522 61.1878 60.4793H63.2858C63.7347 65.2522 67.7628 69 72.6511 69C77.8388 69 82.0594 64.7794 82.0594 59.5917C82.0594 57.8421 81.5778 56.2035 80.7426 54.7988H82.6977L83.3845 55.4855C83.5577 55.6588 83.785 55.7455 84.0121 55.7455C84.2392 55.7455 84.4664 55.6589 84.6396 55.4855C84.828 55.2971 84.9131 55.0452 84.8968 54.7988H89.6926C91.2261 54.7988 92.4736 53.5512 92.4736 52.0177V24.562C92.4736 23.0285 91.2261 21.7809 89.6926 21.7809ZM51.8226 67.2249C47.6137 67.2249 44.1894 63.8006 44.1894 59.5917C44.1894 55.3828 47.6137 51.9585 51.8226 51.9585C56.0315 51.9585 59.4557 55.3828 59.4557 59.5917C59.4557 63.8006 56.0315 67.2249 51.8226 67.2249ZM63.2858 58.7041H61.1878C61.0547 57.2883 60.6064 55.9632 59.9141 54.7988H64.5596C63.8672 55.9632 63.419 57.2883 63.2858 58.7041ZM72.6511 67.2249C68.4422 67.2249 65.0179 63.8006 65.0179 59.5917C65.0179 55.3828 68.4422 51.9585 72.6511 51.9585C76.86 51.9585 80.2842 55.3828 80.2842 59.5917C80.2842 63.8006 76.86 67.2249 72.6511 67.2249ZM79.3783 53.0236C77.6688 51.2731 75.2853 50.1834 72.6511 50.1834C70.0168 50.1834 67.6333 51.2731 65.9238 53.0236H58.5499C56.8405 51.2731 54.4569 50.1834 51.8227 50.1834C49.1885 50.1834 46.8049 51.2731 45.0954 53.0236H43.5511L48.4031 48.1715H76.0704L80.9225 53.0236H79.3783ZM89.6926 53.0236H83.4329L77.0656 46.6564C76.8992 46.4899 76.6734 46.3964 76.4381 46.3964H48.0356C47.8002 46.3964 47.5744 46.4899 47.408 46.6564L41.0407 53.0236H34.7811C34.2264 53.0236 33.7752 52.5724 33.7752 52.0177V51.0118H40.4616C40.9518 51.0118 41.3492 50.6144 41.3492 50.1242C41.3492 49.634 40.9518 49.2366 40.4616 49.2366H33.7752V24.562C33.7752 24.0073 34.2264 23.556 34.7811 23.556H89.6926C90.2472 23.556 90.6985 24.0073 90.6985 24.562V49.2366H84.0121C83.5219 49.2366 83.1245 49.634 83.1245 50.1242C83.1245 50.6144 83.5219 51.0118 84.0121 51.0118H90.6985V52.0177C90.6985 52.5724 90.2472 53.0236 89.6926 53.0236Z" fill="#FFAE00"/>
<path d="M50.8755 26.5146H37.621C37.1308 26.5146 36.7334 26.912 36.7334 27.4022V42.5502C36.7334 43.0404 37.1308 43.4378 37.621 43.4378H50.8755C51.3657 43.4378 51.763 43.0404 51.763 42.5502V27.4022C51.763 26.912 51.3657 26.5146 50.8755 26.5146ZM49.9879 28.2898V35.9821H44.1891V31.1892C44.1891 30.699 43.7917 30.3016 43.3015 30.3016C42.8113 30.3016 42.4139 30.699 42.4139 31.1892V35.9821H38.5086V28.2898H49.9879ZM38.5086 41.6626V37.7573H49.9879V41.6626H38.5086Z" fill="#FFAE00"/>
<path d="M41.4081 38.8224C41.1749 38.8224 40.9454 38.9171 40.7809 39.0827C40.6152 39.2472 40.5205 39.4756 40.5205 39.71C40.5205 39.9431 40.6152 40.1727 40.7809 40.3372C40.9454 40.5029 41.1749 40.5975 41.4081 40.5975C41.6424 40.5975 41.8708 40.5029 42.0353 40.3372C42.201 40.1727 42.2957 39.9431 42.2957 39.71C42.2957 39.4756 42.201 39.2472 42.0353 39.0827C41.8708 38.9169 41.6424 38.8224 41.4081 38.8224Z" fill="#FFAE00"/>
<path d="M45.1952 38.8224C44.9621 38.8224 44.7325 38.9171 44.568 39.0827C44.4023 39.2472 44.3076 39.4768 44.3076 39.71C44.3076 39.9431 44.4023 40.1727 44.568 40.3372C44.7325 40.5029 44.9621 40.5975 45.1952 40.5975C45.4295 40.5975 45.6579 40.5029 45.8224 40.3372C45.9881 40.1727 46.0828 39.9431 46.0828 39.71C46.0828 39.4768 45.9881 39.2472 45.8224 39.0827C45.6579 38.9169 45.4295 38.8224 45.1952 38.8224Z" fill="#FFAE00"/>
<path d="M48.035 38.8224C47.8019 38.8224 47.5723 38.9171 47.4078 39.0827C47.2421 39.2472 47.1475 39.4768 47.1475 39.71C47.1475 39.9431 47.2421 40.1727 47.4078 40.3372C47.5723 40.5029 47.8019 40.5975 48.035 40.5975C48.2682 40.5975 48.4978 40.5029 48.6623 40.3372C48.8279 40.1727 48.9226 39.9443 48.9226 39.71C48.9226 39.4768 48.8279 39.2472 48.6623 39.0827C48.4978 38.9169 48.2694 38.8224 48.035 38.8224Z" fill="#FFAE00"/>
<path d="M77.3846 28.2898H86.8521C87.3423 28.2898 87.7397 27.8924 87.7397 27.4022C87.7397 26.912 87.3423 26.5146 86.8521 26.5146H77.3846C76.8945 26.5146 76.4971 26.912 76.4971 27.4022C76.4971 27.8924 76.8945 28.2898 77.3846 28.2898Z" fill="#FFAE00"/>
<path d="M77.3846 32.0768H86.8521C87.3423 32.0768 87.7397 31.6794 87.7397 31.1892C87.7397 30.699 87.3423 30.3016 86.8521 30.3016H77.3846C76.8945 30.3016 76.4971 30.699 76.4971 31.1892C76.4971 31.6794 76.8945 32.0768 77.3846 32.0768Z" fill="#FFAE00"/>
<path d="M77.3846 35.8638H86.8521C87.3423 35.8638 87.7397 35.4664 87.7397 34.9762C87.7397 34.486 87.3423 34.0886 86.8521 34.0886H77.3846C76.8945 34.0886 76.4971 34.486 76.4971 34.9762C76.4971 35.4664 76.8945 35.8638 77.3846 35.8638Z" fill="#FFAE00"/>
<path d="M77.3846 39.6508H86.8521C87.3423 39.6508 87.7397 39.2534 87.7397 38.7632C87.7397 38.273 87.3423 37.8756 86.8521 37.8756H77.3846C76.8945 37.8756 76.4971 38.273 76.4971 38.7632C76.4971 39.2534 76.8945 39.6508 77.3846 39.6508Z" fill="#FFAE00"/>
<path d="M87.7397 42.5502C87.7397 42.06 87.3423 41.6626 86.8521 41.6626H77.3846C76.8945 41.6626 76.4971 42.06 76.4971 42.5502C76.4971 43.0404 76.8945 43.4378 77.3846 43.4378H86.8521C87.3423 43.4378 87.7397 43.0404 87.7397 42.5502Z" fill="#FFAE00"/>
<path d="M73.5975 32.0768C74.0877 32.0768 74.4851 31.6794 74.4851 31.1892C74.4851 30.699 74.0877 30.3016 73.5975 30.3016H73.5383V27.4022C73.5383 26.912 73.1409 26.5146 72.6508 26.5146H55.6093C55.1191 26.5146 54.7217 26.912 54.7217 27.4022V42.5502C54.7217 43.0404 55.1191 43.4378 55.6093 43.4378H72.6508C73.1409 43.4378 73.5383 43.0404 73.5383 42.5502V39.6508H73.5975C74.0877 39.6508 74.4851 39.2534 74.4851 38.7632C74.4851 38.273 74.0877 37.8756 73.5975 37.8756H73.5383V32.0768H73.5975ZM71.7632 37.8756H71.704C71.2138 37.8756 70.8164 38.273 70.8164 38.7632C70.8164 39.2534 71.2138 39.6508 71.704 39.6508H71.7632V41.6626H56.4968V28.2898H71.7632V30.3016H71.704C71.2138 30.3016 70.8164 30.699 70.8164 31.1892C70.8164 31.6794 71.2138 32.0768 71.704 32.0768H71.7632V37.8756Z" fill="#FFAE00"/>
<path d="M59.3968 34.0886H58.4501C57.9599 34.0886 57.5625 34.486 57.5625 34.9762C57.5625 35.4664 57.9599 35.8638 58.4501 35.8638H59.3968C59.887 35.8638 60.2844 35.4664 60.2844 34.9762C60.2844 34.486 59.887 34.0886 59.3968 34.0886Z" fill="#FFAE00"/>
</svg>
