<svg width="126" height="83" viewBox="0 0 126 83" fill="none" xmlns="http://www.w3.org/2000/svg">
<path d="M53.7712 52.6787C53.4947 52.0475 52.7588 51.76 52.1279 52.0367C51.4968 52.3131 51.2094 53.0489 51.4858 53.68C51.7853 54.3634 51.9371 55.0925 51.9371 55.8465C51.9371 58.8274 49.5119 61.2526 46.5311 61.2526C43.5502 61.2526 41.125 58.8272 41.125 55.8464C41.125 52.8655 43.5502 50.4403 46.5311 50.4403C47.2834 50.4403 48.011 50.5915 48.6935 50.8898C49.3249 51.1657 50.0603 50.8776 50.3363 50.2462C50.6122 49.6149 50.324 48.8794 49.6927 48.6034C48.6932 48.1668 47.6296 47.9452 46.5311 47.9452C42.1744 47.9452 38.6299 51.4897 38.6299 55.8464C38.6299 60.203 42.1744 63.7475 46.5311 63.7475C50.8877 63.7475 54.4322 60.203 54.4322 55.8464C54.4322 54.7455 54.2098 53.6798 53.7712 52.6787Z" fill="url(#paint0_linear)"/>
<path d="M101.091 53.2681H100.35C98.7038 48.5216 94.215 45.2838 89.1145 45.2838C85.5989 45.2838 82.3754 46.8227 80.1715 49.3325C80.0539 49.2957 79.929 49.2759 79.7994 49.2759H77.0548V38.1915C77.0548 36.4822 76.6962 34.8264 75.9887 33.27L71.0328 22.3669C71.4464 22.1638 71.7319 21.7396 71.7319 21.2476C71.7319 20.5586 71.1733 20 70.4843 20H54.5157C53.8267 20 53.2681 20.5586 53.2681 21.2476C53.2681 21.9365 53.8267 22.4951 54.5157 22.4951H54.5988V45.3791C54.0976 44.992 53.5683 44.6402 53.0141 44.3271C53.07 44.1854 53.1018 44.0315 53.1018 43.87V35.8857C53.1018 35.1967 52.5432 34.6381 51.8542 34.6381H46.4481V28.2242C46.4481 26.8246 45.9032 25.5089 44.9135 24.5193L43.4212 23.0271C42.934 22.5399 42.1441 22.5399 41.657 23.0271C41.1698 23.5143 41.1698 24.3042 41.657 24.7913L43.1493 26.2835C43.6676 26.8018 43.9532 27.4911 43.9532 28.2242V34.638H37.36C36.1695 34.638 35.0004 34.9617 33.9794 35.5743L24.5208 41.2495C22.553 42.43 21.3307 44.589 21.3307 46.8836V50.6067H21.2476C20.5586 50.6067 20 51.1652 20 51.8542V54.744C20 55.7882 20.4065 56.7699 21.1449 57.5081L23.578 59.9412C24.3162 60.6796 25.2979 61.0861 26.3421 61.0861H34.3921C36.4255 65.7786 41.1003 69.0705 46.5313 69.0705C52.9409 69.0705 58.2982 64.4861 59.5012 58.4247H73.4344C73.9564 59.97 75.4188 61.0861 77.1381 61.0861H77.8792C79.5253 65.8325 84.0146 69.0705 89.1146 69.0705C94.2158 69.0705 98.7043 65.8328 100.35 61.0861H101.091C103.247 61.0861 105 59.3326 105 57.1771C105 55.0217 103.246 53.2681 101.091 53.2681ZM89.1145 47.7789C92.8445 47.7789 96.1598 49.9697 97.6645 53.2681H80.5644C82.0691 49.9696 85.3841 47.7789 89.1145 47.7789ZM74.5597 38.1915V38.2444L65.4198 35.7518C63.6517 35.2694 62.4168 33.6527 62.4168 31.82V22.4951H68.3504L73.7173 34.3025C74.2762 35.5322 74.5597 36.8406 74.5597 38.1915ZM59.9217 22.4951V31.82C59.9217 34.7749 61.9126 37.3816 64.7634 38.1589L74.5597 40.8307V49.2759H58.5078C58.3463 49.2759 58.1924 49.3077 58.0507 49.3636C57.7625 48.8534 57.4432 48.3631 57.0921 47.8976C57.0924 47.8857 57.0939 47.874 57.0939 47.862V22.4951H59.9217ZM23.8258 46.8836C23.8258 45.4602 24.584 44.1214 25.8045 43.389L35.2631 37.7138C35.8963 37.3338 36.6214 37.1331 37.3598 37.1331H43.953V39.8777C43.953 40.5667 44.5116 41.1252 45.2006 41.1252C45.8896 41.1252 46.4481 40.5667 46.4481 39.8777V37.1331H50.6066V43.2677C49.3222 42.8505 47.9532 42.6223 46.5313 42.6223C44.4612 42.6223 42.5014 43.1014 40.7551 43.953H29.2319C28.5429 43.953 27.9843 44.5116 27.9843 45.2006C27.9843 45.8896 28.5429 46.4481 29.2319 46.4481H37.2392C36.0424 47.6315 35.0706 49.0411 34.3921 50.6067H23.8258V46.8836ZM26.3421 58.591C25.9643 58.591 25.6093 58.444 25.3422 58.1768L22.9093 55.7438C22.6423 55.4768 22.4951 55.1216 22.4951 54.7439V53.1018H22.5783H33.5955C33.4077 53.9877 33.3072 54.9054 33.3072 55.8464C33.3072 56.7874 33.4077 57.7051 33.5955 58.591H26.3421ZM46.5313 66.5753C40.6154 66.5753 35.8023 61.7623 35.8023 55.8464C35.8023 49.9305 40.6154 45.1174 46.5313 45.1174C52.4472 45.1174 57.2603 49.9305 57.2603 55.8464C57.2603 61.7623 52.4472 66.5753 46.5313 66.5753ZM59.11 51.771H78.5174C78.2731 52.2508 78.0586 52.7501 77.879 53.2681H77.138C75.4187 53.2681 73.9562 54.3843 73.4342 55.9296H59.7532C59.7534 55.9018 59.7554 55.8743 59.7554 55.8464C59.7554 54.4245 59.5272 53.0555 59.11 51.771ZM89.1145 66.5753C85.3848 66.5753 82.0691 64.3843 80.5644 61.0861H97.6645C96.1598 64.3846 92.8448 66.5753 89.1145 66.5753ZM101.091 58.591H77.138C76.3583 58.591 75.7241 57.9567 75.7241 57.1771C75.7241 56.3975 76.3583 55.7632 77.138 55.7632H78.8012C78.8025 55.7632 78.8039 55.7634 78.805 55.7634C78.806 55.7634 78.807 55.7632 78.808 55.7632H101.091C101.871 55.7632 102.505 56.3975 102.505 57.1771C102.505 57.9567 101.871 58.591 101.091 58.591Z" fill="url(#paint1_linear)"/>
<path d="M61.1694 46.4481H70.4845C71.1735 46.4481 71.7321 45.8895 71.7321 45.2006C71.7321 44.5116 71.1735 43.953 70.4845 43.953H61.1694C60.4804 43.953 59.9219 44.5116 59.9219 45.2006C59.9219 45.8895 60.4804 46.4481 61.1694 46.4481Z" fill="url(#paint2_linear)"/>
<defs>
<linearGradient id="paint0_linear" x1="46.5311" y1="47.9452" x2="46.5311" y2="63.7475" gradientUnits="userSpaceOnUse">
<stop stop-color="#FFBB00"/>
<stop offset="1" stop-color="#FFA700"/>
</linearGradient>
<linearGradient id="paint1_linear" x1="62.5001" y1="20" x2="62.5001" y2="69.0705" gradientUnits="userSpaceOnUse">
<stop stop-color="#FFBB00"/>
<stop offset="1" stop-color="#FFA700"/>
</linearGradient>
<linearGradient id="paint2_linear" x1="65.827" y1="43.953" x2="65.827" y2="46.4481" gradientUnits="userSpaceOnUse">
<stop stop-color="#FFBB00"/>
<stop offset="1" stop-color="#FFA700"/>
</linearGradient>
</defs>
</svg>
